<svg width="24" height="26" viewBox="0 0 24 26" fill="none" xmlns="http://www.w3.org/2000/svg">
<path d="M22.7538 7.73867C22.7531 7.73282 22.7519 7.72705 22.7511 7.7212C22.7477 7.69602 22.7432 7.67126 22.7375 7.64691C22.7357 7.63914 22.7337 7.63148 22.7316 7.62374C22.725 7.5993 22.7174 7.57536 22.7086 7.55194C22.7065 7.54637 22.7047 7.54076 22.7025 7.53523C22.6907 7.50587 22.6772 7.47726 22.662 7.44955L22.6612 7.44786L19.301 1.39896C19.2339 1.27804 19.1356 1.17729 19.0163 1.10714C18.8971 1.03699 18.7613 0.999997 18.623 1H5.13492C4.99659 0.999997 4.86077 1.03699 4.74155 1.10715C4.62233 1.17732 4.52405 1.27809 4.45689 1.39902L1.0968 7.4479C1.01123 7.60254 0.981144 7.7818 1.01153 7.9559V24.2243C1.01152 24.3262 1.03157 24.427 1.07055 24.5211C1.10952 24.6153 1.16665 24.7008 1.23868 24.7728C1.3107 24.8448 1.39621 24.902 1.49033 24.941C1.58444 24.9799 1.6853 25 1.78717 25H21.9831C22.085 25 22.1858 24.9799 22.2799 24.941C22.374 24.902 22.4596 24.8449 22.5316 24.7728C22.6036 24.7008 22.6607 24.6153 22.6997 24.5212C22.7387 24.4271 22.7588 24.3262 22.7587 24.2244V7.82456C22.7587 7.79586 22.757 7.76719 22.7538 7.73867ZM5.59134 2.55129H11.1095V5.7079C11.1095 5.80976 11.1295 5.91062 11.1685 6.00472C11.2075 6.09883 11.2646 6.18433 11.3367 6.25636C11.4087 6.32838 11.4942 6.38551 11.5883 6.42449C11.6824 6.46347 11.7833 6.48354 11.8851 6.48354C11.987 6.48354 12.0878 6.46347 12.1819 6.42449C12.276 6.38551 12.3615 6.32838 12.4336 6.25636C12.5056 6.18433 12.5627 6.09883 12.6017 6.00472C12.6407 5.91062 12.6608 5.80976 12.6608 5.7079V2.55129H18.1666L20.665 7.04892H3.09298L5.59134 2.55129ZM8.34362 8.60016H15.4245V10.5467C15.4244 10.6568 15.3805 10.7624 15.3027 10.8403C15.2248 10.9182 15.1192 10.962 15.009 10.9621H8.75904C8.6489 10.962 8.54331 10.9182 8.46543 10.8403C8.38755 10.7624 8.34374 10.6568 8.34362 10.5467V8.60016ZM21.2075 23.4487H2.56281V8.60019H6.79235V10.5467C6.79294 11.0681 7.00033 11.568 7.36903 11.9367C7.73772 12.3054 8.23762 12.5128 8.75904 12.5134H15.0091C15.5305 12.5128 16.0304 12.3054 16.3991 11.9367C16.7678 11.5681 16.9752 11.0682 16.9758 10.5467V8.60019H21.2075V23.4487Z" fill="#DA202A" stroke="#DA202A" stroke-width="0.6"/>
</svg>
