<svg width="26" height="26" viewBox="0 0 26 26" fill="none" xmlns="http://www.w3.org/2000/svg">
<path fill-rule="evenodd" clip-rule="evenodd" d="M21.1293 15.7799L23.8318 18.4824C24.1958 18.8309 24.4865 19.2486 24.6869 19.7109C24.8873 20.1733 24.9933 20.671 24.9988 21.1748C25.0042 21.6787 24.909 22.1786 24.7187 22.6452C24.5283 23.1117 24.2467 23.5356 23.8904 23.8919C23.534 24.2481 23.1101 24.5297 22.6435 24.7199C22.1769 24.9102 21.677 25.0053 21.1732 24.9998C20.6693 24.9942 20.1716 24.8881 19.7093 24.6876C19.247 24.4872 18.8294 24.1964 18.481 23.8323L15.7767 21.1298L14.4527 22.4538C14.2688 22.6377 14.0388 22.7686 13.7869 22.8328C13.535 22.8971 13.2704 22.8923 13.0209 22.819C12.7715 22.7457 12.5464 22.6066 12.3693 22.4163C12.1921 22.2259 12.0695 21.9914 12.0144 21.7373L11.0933 17.4888H4.14378C3.3099 17.4879 2.51045 17.1562 1.92081 16.5666C1.33116 15.9769 0.999487 15.1775 0.998535 14.3436V4.14524C0.999487 3.31136 1.33116 2.51191 1.92081 1.92227C2.51045 1.33263 3.3099 1.00095 4.14378 1H14.3415C15.1754 1.00095 15.9749 1.33263 16.5645 1.92227C17.1542 2.51191 17.4858 3.31136 17.4868 4.14524V11.0947L21.7364 12.0176C21.9905 12.0727 22.2251 12.1952 22.4155 12.3723C22.6059 12.5494 22.7451 12.7745 22.8184 13.0239C22.8918 13.2733 22.8965 13.5379 22.8323 13.7899C22.768 14.0418 22.6371 14.2718 22.4533 14.4556L21.1293 15.7799ZM2.97934 15.508C3.2882 15.8169 3.70698 15.9906 4.14378 15.9911H10.7694L9.80071 11.5228C9.74942 11.286 9.75835 11.0402 9.82668 10.8078C9.89501 10.5754 10.0206 10.3639 10.1918 10.1926C10.3631 10.0213 10.5746 9.89574 10.807 9.82737C11.0393 9.759 11.2852 9.75003 11.5219 9.80128L15.989 10.77V4.14584C15.9886 3.70904 15.8148 3.29027 15.506 2.9814C15.1971 2.67254 14.7783 2.49881 14.3415 2.49833H4.14378C3.70698 2.49881 3.2882 2.67254 2.97934 2.9814C2.67047 3.29027 2.49674 3.70904 2.49627 4.14584V14.3436C2.49674 14.7804 2.67047 15.1992 2.97934 15.508ZM22.0309 23.2692C22.3083 23.1543 22.5603 22.9858 22.7726 22.7734C23.2013 22.3447 23.4425 21.7631 23.4425 21.1568C23.4425 20.5504 23.2016 19.9689 22.7729 19.5401L20.0344 16.8017C19.763 16.5303 19.6106 16.1621 19.6106 15.7783C19.6106 15.3944 19.763 15.0263 20.0344 14.7549L21.3291 13.4602L11.2811 11.2816L13.4597 21.3296L14.754 20.0353C14.8884 19.9008 15.048 19.7942 15.2236 19.7214C15.3992 19.6486 15.5875 19.6112 15.7776 19.6112C15.9677 19.6112 16.1559 19.6486 16.3315 19.7214C16.5072 19.7942 16.6667 19.9008 16.8011 20.0353L19.5393 22.7734C19.7515 22.9858 20.0036 23.1543 20.281 23.2692C20.5584 23.3841 20.8557 23.4433 21.1559 23.4433C21.4562 23.4433 21.7535 23.3841 22.0309 23.2692ZM5.49269 4.74287H8.47707C8.67568 4.74287 8.86616 4.82176 9.0066 4.9622C9.14704 5.10264 9.22594 5.29312 9.22594 5.49173C9.22594 5.69035 9.14704 5.88082 9.0066 6.02126C8.86616 6.1617 8.67568 6.2406 8.47707 6.2406H5.49269C5.29408 6.2406 5.1036 6.1617 4.96316 6.02126C4.82272 5.88082 4.74382 5.69035 4.74382 5.49173C4.74382 5.29312 4.82272 5.10264 4.96316 4.9622C5.1036 4.82176 5.29408 4.74287 5.49269 4.74287Z" fill="#DA202A"/>
<path d="M23.8318 18.4824L23.655 18.6593L23.6589 18.663L23.8318 18.4824ZM21.1293 15.7799L20.9525 15.6032L20.7757 15.78L20.9525 15.9567L21.1293 15.7799ZM24.9988 21.1748L24.7488 21.1775L24.9988 21.1748ZM23.8904 23.8919L23.7136 23.7151L23.8904 23.8919ZM21.1732 24.9998L21.1704 25.2498L21.1732 24.9998ZM19.7093 24.6876L19.8088 24.4583H19.8088L19.7093 24.6876ZM18.481 23.8323L18.6616 23.6594L18.6577 23.6555L18.481 23.8323ZM15.7767 21.1298L15.9534 20.953L15.7766 20.7763L15.5999 20.9531L15.7767 21.1298ZM14.4527 22.4538L14.6294 22.6306L14.6295 22.6306L14.4527 22.4538ZM13.7869 22.8328L13.8487 23.0751L13.7869 22.8328ZM13.0209 22.819L12.9504 23.0589L13.0209 22.819ZM12.3693 22.4163L12.5523 22.2459H12.5523L12.3693 22.4163ZM12.0144 21.7373L11.77 21.7903L11.7701 21.7904L12.0144 21.7373ZM11.0933 17.4888L11.3376 17.4359L11.2949 17.2388H11.0933V17.4888ZM4.14378 17.4888L4.14349 17.7388H4.14378V17.4888ZM1.92081 16.5666L1.74403 16.7434L1.92081 16.5666ZM0.998535 14.3436H0.748535L0.748535 14.3439L0.998535 14.3436ZM0.998535 4.14524L0.748535 4.14496V4.14524H0.998535ZM1.92081 1.92227L1.74403 1.74549L1.92081 1.92227ZM4.14378 1V0.75L4.14349 0.75L4.14378 1ZM14.3415 1L14.3418 0.75H14.3415V1ZM16.5645 1.92227L16.7413 1.74549L16.5645 1.92227ZM17.4868 4.14524H17.7368V4.14495L17.4868 4.14524ZM17.4868 11.0947H17.2368V11.2963L17.4337 11.339L17.4868 11.0947ZM21.7364 12.0176L21.6834 12.2619L21.6835 12.2619L21.7364 12.0176ZM22.8184 13.0239L22.5786 13.0944L22.5786 13.0944L22.8184 13.0239ZM22.8323 13.7899L23.0745 13.8517L22.8323 13.7899ZM22.4533 14.4556L22.2765 14.2789L22.2765 14.2789L22.4533 14.4556ZM4.14378 15.9911L4.1435 16.2411H4.14378V15.9911ZM2.97934 15.508L3.15611 15.3313L2.97934 15.508ZM10.7694 15.9911V16.2411H11.0795L11.0138 15.9381L10.7694 15.9911ZM9.80071 11.5228L9.55638 11.5757L9.55639 11.5757L9.80071 11.5228ZM9.82668 10.8078L9.58683 10.7373L9.82668 10.8078ZM10.807 9.82737L10.7364 9.58753H10.7364L10.807 9.82737ZM11.5219 9.80128L11.5749 9.55696L11.5748 9.55694L11.5219 9.80128ZM15.989 10.77L15.9361 11.0143L16.239 11.08V10.77H15.989ZM15.989 4.14584H16.239V4.14557L15.989 4.14584ZM15.506 2.9814L15.3292 3.15818V3.15818L15.506 2.9814ZM14.3415 2.49833L14.3418 2.24833H14.3415V2.49833ZM4.14378 2.49833V2.24833L4.1435 2.24833L4.14378 2.49833ZM2.97934 2.9814L3.15611 3.15818L2.97934 2.9814ZM2.49627 4.14584L2.24627 4.14557V4.14584H2.49627ZM2.49627 14.3436H2.24627L2.24627 14.3439L2.49627 14.3436ZM22.7726 22.7734L22.5958 22.5967L22.5958 22.5967L22.7726 22.7734ZM22.0309 23.2692L21.9352 23.0382L22.0309 23.2692ZM22.7729 19.5401L22.9497 19.3634L22.9497 19.3634L22.7729 19.5401ZM20.0344 16.8017L19.8576 16.9785L19.8576 16.9785L20.0344 16.8017ZM20.0344 14.7549L19.8576 14.5781L19.8576 14.5781L20.0344 14.7549ZM21.3291 13.4602L21.5058 13.637L21.8298 13.313L21.382 13.2159L21.3291 13.4602ZM11.2811 11.2816L11.334 11.0373L10.9544 10.955L11.0368 11.3346L11.2811 11.2816ZM13.4597 21.3296L13.2154 21.3826L13.3124 21.8304L13.6365 21.5064L13.4597 21.3296ZM14.754 20.0353L14.9308 20.2121L14.9308 20.212L14.754 20.0353ZM16.8011 20.0353L16.6243 20.212L16.6243 20.2121L16.8011 20.0353ZM19.5393 22.7734L19.7161 22.5967L19.7161 22.5967L19.5393 22.7734ZM20.281 23.2692L20.3767 23.0382L20.281 23.2692ZM9.0066 6.02126L9.18338 6.19804H9.18338L9.0066 6.02126ZM4.96316 6.02126L4.78638 6.19804L4.78638 6.19804L4.96316 6.02126ZM24.0086 18.3057L21.306 15.6032L20.9525 15.9567L23.655 18.6592L24.0086 18.3057ZM24.9162 19.6115C24.7026 19.1186 24.3927 18.6734 24.0047 18.3019L23.6589 18.663C23.9988 18.9885 24.2703 19.3785 24.4575 19.8103L24.9162 19.6115ZM25.2487 21.1721C25.2429 20.635 25.1299 20.1044 24.9162 19.6115L24.4575 19.8103C24.6446 20.2421 24.7437 20.707 24.7488 21.1775L25.2487 21.1721ZM24.9501 22.7396C25.153 22.2422 25.2546 21.7093 25.2487 21.1721L24.7488 21.1775C24.7539 21.6481 24.6649 22.115 24.4872 22.5507L24.9501 22.7396ZM24.0672 24.0687C24.447 23.6888 24.7472 23.237 24.9501 22.7396L24.4872 22.5507C24.3094 22.9865 24.0464 23.3823 23.7136 23.7151L24.0672 24.0687ZM22.7379 24.9514C23.2354 24.7486 23.6873 24.4485 24.0672 24.0687L23.7136 23.7151C23.3808 24.0478 22.9849 24.3107 22.5492 24.4884L22.7379 24.9514ZM21.1704 25.2498C21.7076 25.2557 22.2405 25.1542 22.7379 24.9514L22.5492 24.4884C22.1134 24.6661 21.6465 24.755 21.1759 24.7498L21.1704 25.2498ZM19.6098 24.917C20.1027 25.1307 20.6333 25.2438 21.1704 25.2498L21.1759 24.7498C20.7053 24.7446 20.2405 24.6455 19.8088 24.4583L19.6098 24.917ZM18.3004 24.0052C18.6718 24.3933 19.117 24.7033 19.6098 24.917L19.8088 24.4583C19.377 24.271 18.987 23.9995 18.6616 23.6595L18.3004 24.0052ZM15.6 21.3067L18.3043 24.0092L18.6577 23.6555L15.9534 20.953L15.6 21.3067ZM14.6295 22.6306L15.9534 21.3066L15.5999 20.9531L14.2759 22.2771L14.6295 22.6306ZM13.8487 23.0751C14.1441 22.9997 14.4138 22.8462 14.6294 22.6306L14.2759 22.277C14.1238 22.4291 13.9335 22.5374 13.7251 22.5906L13.8487 23.0751ZM12.9504 23.0589C13.243 23.1448 13.5533 23.1504 13.8487 23.0751L13.7251 22.5906C13.5167 22.6438 13.2978 22.6398 13.0914 22.5792L12.9504 23.0589ZM12.1862 22.5866C12.3939 22.8098 12.6579 22.9729 12.9504 23.0589L13.0914 22.5792C12.885 22.5185 12.6988 22.4034 12.5523 22.2459L12.1862 22.5866ZM11.7701 21.7904C11.8348 22.0883 11.9785 22.3633 12.1862 22.5866L12.5523 22.2459C12.4057 22.0885 12.3043 21.8945 12.2587 21.6843L11.7701 21.7904ZM10.8489 17.5418L11.77 21.7903L12.2587 21.6843L11.3376 17.4359L10.8489 17.5418ZM4.14378 17.7388H11.0933V17.2388H4.14378V17.7388ZM1.74403 16.7434C2.38048 17.3798 3.24341 17.7378 4.14349 17.7388L4.14406 17.2388C3.37639 17.238 2.64041 16.9326 2.09758 16.3898L1.74403 16.7434ZM0.748535 14.3439C0.749562 15.244 1.10757 16.1069 1.74403 16.7434L2.09758 16.3898C1.55476 15.847 1.24941 15.111 1.24853 14.3433L0.748535 14.3439ZM0.748535 4.14524V14.3436H1.24854V4.14524H0.748535ZM1.74403 1.74549C1.10757 2.38195 0.749562 3.24487 0.748535 4.14496L1.24853 4.14553C1.24941 3.37785 1.55476 2.64187 2.09758 2.09905L1.74403 1.74549ZM4.14349 0.75C3.24341 0.751027 2.38048 1.10904 1.74403 1.74549L2.09758 2.09905C2.64041 1.55622 3.37639 1.25088 4.14406 1.25L4.14349 0.75ZM14.3415 0.75H4.14378V1.25H14.3415V0.75ZM16.7413 1.74549C16.1048 1.10904 15.2419 0.751027 14.3418 0.75L14.3413 1.25C15.1089 1.25088 15.8449 1.55622 16.3877 2.09905L16.7413 1.74549ZM17.7368 4.14495C17.7358 3.24487 17.3777 2.38195 16.7413 1.74549L16.3877 2.09905C16.9306 2.64187 17.2359 3.37785 17.2368 4.14553L17.7368 4.14495ZM17.7368 11.0947V4.14524H17.2368V11.0947H17.7368ZM21.7895 11.7733L17.5398 10.8504L17.4337 11.339L21.6834 12.2619L21.7895 11.7733ZM22.5858 12.1892C22.3625 11.9816 22.0874 11.8379 21.7894 11.7733L21.6835 12.2619C21.8937 12.3075 22.0877 12.4089 22.2452 12.5554L22.5858 12.1892ZM23.0583 12.9534C22.9723 12.6608 22.809 12.3969 22.5858 12.1892L22.2452 12.5554C22.4028 12.7018 22.5179 12.8881 22.5786 13.0944L23.0583 12.9534ZM23.0745 13.8517C23.1499 13.5562 23.1443 13.2459 23.0583 12.9534L22.5786 13.0944C22.6392 13.3008 22.6432 13.5197 22.59 13.7281L23.0745 13.8517ZM22.63 14.6324C22.8456 14.4168 22.9992 14.1471 23.0745 13.8517L22.59 13.7281C22.5369 13.9365 22.4286 14.1268 22.2765 14.2789L22.63 14.6324ZM21.3061 15.9567L22.6301 14.6324L22.2765 14.2789L20.9525 15.6032L21.3061 15.9567ZM4.14405 15.7411C3.77346 15.7407 3.41816 15.5933 3.15611 15.3313L2.80256 15.6848C3.15824 16.0405 3.64049 16.2406 4.1435 16.2411L4.14405 15.7411ZM10.7694 15.7411H4.14378V16.2411H10.7694V15.7411ZM9.55639 11.5757L10.5251 16.0441L11.0138 15.9381L10.045 11.4698L9.55639 11.5757ZM9.58683 10.7373C9.5067 11.0098 9.49623 11.2981 9.55638 11.5757L10.045 11.4698C10.0026 11.274 10.01 11.0706 10.0665 10.8784L9.58683 10.7373ZM10.015 10.0159C9.81419 10.2167 9.66696 10.4648 9.58683 10.7373L10.0665 10.8784C10.1231 10.6861 10.2269 10.5111 10.3686 10.3694L10.015 10.0159ZM10.7364 9.58753C10.4639 9.66771 10.2159 9.81498 10.015 10.0159L10.3686 10.3694C10.5103 10.2277 10.6853 10.1238 10.8775 10.0672L10.7364 9.58753ZM11.5748 9.55694C11.2972 9.49684 11.0089 9.50736 10.7364 9.58753L10.8775 10.0672C11.0698 10.0106 11.2732 10.0032 11.469 10.0456L11.5748 9.55694ZM16.042 10.5257L11.5749 9.55696L11.4689 10.0456L15.9361 11.0143L16.042 10.5257ZM15.739 4.14584V10.77H16.239V4.14584H15.739ZM15.3292 3.15818C15.5913 3.42023 15.7386 3.77552 15.739 4.14611L16.239 4.14557C16.2385 3.64256 16.0384 3.16031 15.6828 2.80462L15.3292 3.15818ZM14.3413 2.74833C14.7119 2.74874 15.0672 2.89613 15.3292 3.15818L15.6828 2.80462C15.3271 2.44894 14.8448 2.24888 14.3418 2.24833L14.3413 2.74833ZM4.14378 2.74833H14.3415V2.24833H4.14378V2.74833ZM3.15611 3.15818C3.41816 2.89613 3.77346 2.74874 4.14405 2.74833L4.1435 2.24833C3.64049 2.24888 3.15824 2.44894 2.80256 2.80462L3.15611 3.15818ZM2.74627 4.14611C2.74667 3.77552 2.89407 3.42023 3.15611 3.15818L2.80256 2.80462C2.44688 3.16031 2.24682 3.64256 2.24627 4.14557L2.74627 4.14611ZM2.74627 14.3436V4.14584H2.24627V14.3436H2.74627ZM3.15611 15.3313C2.89407 15.0692 2.74667 14.7139 2.74627 14.3433L2.24627 14.3439C2.24682 14.8469 2.44688 15.3291 2.80256 15.6848L3.15611 15.3313ZM22.5958 22.5967C22.4067 22.7858 22.1822 22.9359 21.9352 23.0382L22.1266 23.5001C22.4343 23.3726 22.7139 23.1858 22.9494 22.9502L22.5958 22.5967ZM23.1925 21.1568C23.1925 21.6968 22.9777 22.2147 22.5958 22.5967L22.9494 22.9502C23.4249 22.4746 23.6925 21.8295 23.6925 21.1568H23.1925ZM22.5961 19.7169C22.9779 20.0988 23.1925 20.6167 23.1925 21.1568H23.6925C23.6925 20.4841 23.4253 19.839 22.9497 19.3634L22.5961 19.7169ZM19.8576 16.9785L22.5961 19.7169L22.9497 19.3634L20.2112 16.6249L19.8576 16.9785ZM19.3606 15.7783C19.3606 16.2284 19.5394 16.6601 19.8576 16.9785L20.2112 16.6249C19.9867 16.4004 19.8606 16.0958 19.8606 15.7783H19.3606ZM19.8576 14.5781C19.5394 14.8964 19.3606 15.3281 19.3606 15.7783H19.8606C19.8606 15.4607 19.9867 15.1562 20.2112 14.9316L19.8576 14.5781ZM21.1523 13.2835L19.8576 14.5781L20.2112 14.9317L21.5058 13.637L21.1523 13.2835ZM11.2281 11.526L21.2761 13.7046L21.382 13.2159L11.334 11.0373L11.2281 11.526ZM13.704 21.2767L11.5254 11.2287L11.0368 11.3346L13.2154 21.3826L13.704 21.2767ZM14.5772 19.8585L13.2829 21.1529L13.6365 21.5064L14.9308 20.2121L14.5772 19.8585ZM15.1279 19.4904C14.9219 19.5758 14.7348 19.7009 14.5772 19.8586L14.9308 20.212C15.042 20.1008 15.174 20.0125 15.3193 19.9523L15.1279 19.4904ZM15.7776 19.3612C15.5546 19.3612 15.3339 19.4051 15.1279 19.4904L15.3193 19.9523C15.4646 19.8921 15.6203 19.8612 15.7776 19.8612V19.3612ZM16.4272 19.4904C16.2213 19.4051 16.0005 19.3612 15.7776 19.3612V19.8612C15.9348 19.8612 16.0906 19.8921 16.2358 19.9523L16.4272 19.4904ZM16.9779 19.8586C16.8203 19.7009 16.6332 19.5758 16.4272 19.4904L16.2358 19.9523C16.3811 20.0125 16.5131 20.1008 16.6243 20.212L16.9779 19.8586ZM19.7161 22.5967L16.9779 19.8585L16.6243 20.2121L19.3625 22.9502L19.7161 22.5967ZM20.3767 23.0382C20.1296 22.9359 19.9051 22.7858 19.7161 22.5967L19.3625 22.9502C19.5979 23.1858 19.8775 23.3726 20.1853 23.5001L20.3767 23.0382ZM21.1559 23.1933C20.8885 23.1933 20.6237 23.1406 20.3767 23.0382L20.1853 23.5001C20.493 23.6276 20.8228 23.6933 21.1559 23.6933V23.1933ZM21.9352 23.0382C21.6881 23.1406 21.4233 23.1933 21.1559 23.1933V23.6933C21.489 23.6933 21.8189 23.6276 22.1266 23.5001L21.9352 23.0382ZM8.47707 4.49287H5.49269V4.99287H8.47707V4.49287ZM9.18338 4.78543C8.99605 4.5981 8.74199 4.49287 8.47707 4.49287V4.99287C8.60938 4.99287 8.73627 5.04543 8.82982 5.13898L9.18338 4.78543ZM9.47594 5.49173C9.47594 5.22682 9.3707 4.97275 9.18338 4.78543L8.82982 5.13898C8.92338 5.23254 8.97594 5.35943 8.97594 5.49173H9.47594ZM9.18338 6.19804C9.3707 6.01071 9.47594 5.75665 9.47594 5.49173H8.97594C8.97594 5.62404 8.92338 5.75093 8.82982 5.84449L9.18338 6.19804ZM8.47707 6.4906C8.74199 6.4906 8.99605 6.38536 9.18338 6.19804L8.82982 5.84449C8.73627 5.93804 8.60938 5.9906 8.47707 5.9906V6.4906ZM5.49269 6.4906H8.47707V5.9906H5.49269V6.4906ZM4.78638 6.19804C4.97371 6.38536 5.22777 6.4906 5.49269 6.4906V5.9906C5.36038 5.9906 5.23349 5.93804 5.13994 5.84449L4.78638 6.19804ZM4.49382 5.49173C4.49382 5.75665 4.59906 6.01072 4.78638 6.19804L5.13994 5.84449C5.04638 5.75093 4.99382 5.62404 4.99382 5.49173H4.49382ZM4.78638 4.78543C4.59906 4.97275 4.49382 5.22682 4.49382 5.49173H4.99382C4.99382 5.35943 5.04638 5.23254 5.13994 5.13898L4.78638 4.78543ZM5.49269 4.49287C5.22777 4.49287 4.97371 4.5981 4.78638 4.78543L5.13994 5.13898C5.23349 5.04543 5.36038 4.99287 5.49269 4.99287V4.49287Z" fill="#DA202A"/>
</svg>
