<svg width="26" height="26" viewBox="0 0 26 26" fill="none" xmlns="http://www.w3.org/2000/svg">
<path d="M24.3158 1.68493C23.7081 1.07722 22.8219 0.851037 21.9984 1.09895L2.66847 6.86373C1.74846 7.1374 1.11499 7.90126 1.01438 8.85669C0.913764 9.81132 1.37498 10.6903 2.21772 11.1499L10.1638 15.4843C10.3135 15.5664 10.4351 15.688 10.5164 15.8369L14.8508 23.7822C15.2694 24.5492 16.0332 25 16.8864 25C16.9709 25 17.0579 24.996 17.144 24.9863C18.0986 24.8857 18.8625 24.2522 19.1362 23.3314L24.9009 4.00227C25.1472 3.18045 24.9227 2.29183 24.3158 1.68493ZM23.5133 3.58854L17.7485 22.9185C17.5923 23.4425 17.1303 23.5318 16.9927 23.5455C16.8542 23.56 16.385 23.5689 16.1226 23.0891L11.8219 15.2058L18.3522 8.67478C18.6355 8.39226 18.6355 7.93346 18.3522 7.65093C18.0688 7.3676 17.6109 7.3676 17.3283 7.65093L10.7981 14.1804L2.91156 9.87812C2.43022 9.61572 2.44068 9.14565 2.45517 9.00801C2.46966 8.87037 2.55739 8.40835 3.083 8.2522L22.4122 2.48742C22.4983 2.46167 22.5852 2.44959 22.6705 2.44959C22.8999 2.44959 23.1205 2.53974 23.2911 2.71038C23.5245 2.943 23.6074 3.27221 23.5133 3.58854Z" fill="white" stroke="white" stroke-width="0.5"/>
</svg>
