<svg width="40" height="40" viewBox="0 0 40 40" fill="none" xmlns="http://www.w3.org/2000/svg">
<path fill-rule="evenodd" clip-rule="evenodd" d="M32.8737 24.4016L37.1526 28.6805C37.7289 29.2323 38.1892 29.8936 38.5065 30.6256C38.8238 31.3577 38.9917 32.1457 39.0003 32.9435C39.009 33.7413 38.8582 34.5328 38.5568 35.2715C38.2555 36.0102 37.8096 36.6813 37.2454 37.2455C36.6812 37.8096 36.01 38.2553 35.2712 38.5565C34.5325 38.8578 33.7409 39.0084 32.9432 38.9996C32.1454 38.9909 31.3574 38.8228 30.6254 38.5054C29.8934 38.188 29.2322 37.7276 28.6805 37.1512L24.3987 32.8722L22.3024 34.9686C22.0113 35.2596 21.6471 35.4669 21.2482 35.5687C20.8493 35.6704 20.4304 35.6629 20.0354 35.5468C19.6405 35.4307 19.2841 35.2104 19.0036 34.9091C18.7232 34.6077 18.5291 34.2364 18.4417 33.8341L16.9833 27.1073H5.97996C4.65966 27.1058 3.39386 26.5807 2.46026 25.6471C1.52666 24.7135 1.00151 23.4477 1 22.1274V5.97996C1.00151 4.65966 1.52666 3.39386 2.46026 2.46026C3.39386 1.52666 4.65966 1.00151 5.97996 1H22.1264C23.4467 1.00151 24.7125 1.52666 25.6461 2.46026C26.5797 3.39386 27.1049 4.65966 27.1064 5.97996V16.9833L33.835 18.4446C34.2373 18.5318 34.6087 18.7258 34.9102 19.0061C35.2116 19.2865 35.432 19.6429 35.5481 20.0378C35.6643 20.4328 35.6718 20.8517 35.5701 21.2506C35.4684 21.6495 35.2611 22.0137 34.97 22.3048L32.8737 24.4016ZM4.13627 23.9711C4.62531 24.4601 5.28836 24.7352 5.97996 24.7359H16.4706L14.9368 17.6611C14.8556 17.2862 14.8697 16.897 14.9779 16.5291C15.0861 16.1611 15.2849 15.8262 15.556 15.555C15.8272 15.2838 16.1621 15.0849 16.53 14.9767C16.8979 14.8684 17.2872 14.8542 17.662 14.9354L24.735 16.4692V5.98091C24.7342 5.28931 24.4592 4.62625 23.9701 4.13722C23.4811 3.64818 22.818 3.37311 22.1264 3.37236H5.97996C5.28836 3.37311 4.62531 3.64818 4.13627 4.13722C3.64723 4.62625 3.37216 5.28931 3.37141 5.98091V22.1274C3.37216 22.819 3.64723 23.482 4.13627 23.9711ZM34.3012 36.2596C34.7404 36.0776 35.1395 35.8109 35.4756 35.4746C36.1544 34.7957 36.5362 33.875 36.5362 32.9149C36.5362 31.9549 36.1549 31.0341 35.476 30.3552L31.1402 26.0193C30.7104 25.5896 30.469 25.0067 30.469 24.399C30.469 23.7912 30.7104 23.2083 31.1402 22.7786L33.19 20.7287L17.2807 17.2793L20.7301 33.1886L22.7795 31.1392C22.9923 30.9263 23.2449 30.7574 23.523 30.6422C23.8011 30.527 24.0991 30.4677 24.4001 30.4677C24.7011 30.4677 24.9992 30.527 25.2773 30.6422C25.5553 30.7574 25.808 30.9263 26.0208 31.1392L30.3562 35.4746C30.6923 35.8109 31.0913 36.0776 31.5305 36.2596C31.9697 36.4415 32.4405 36.5352 32.9159 36.5352C33.3913 36.5352 33.862 36.4415 34.3012 36.2596ZM8.11464 6.9268H12.8399C13.1544 6.9268 13.456 7.05172 13.6783 7.27408C13.9007 7.49644 14.0256 7.79803 14.0256 8.1125C14.0256 8.42697 13.9007 8.72856 13.6783 8.95092C13.456 9.17328 13.1544 9.29821 12.8399 9.29821H8.11464C7.80017 9.29821 7.49858 9.17328 7.27622 8.95092C7.05386 8.72856 6.92894 8.42697 6.92894 8.1125C6.92894 7.79803 7.05386 7.49644 7.27622 7.27408C7.49858 7.05172 7.80017 6.9268 8.11464 6.9268Z" fill="#DA202A"/>
<path d="M37.1526 28.6805L37.0819 28.7513L37.0835 28.7528L37.1526 28.6805ZM32.8737 24.4016L32.8029 24.3309L32.7322 24.4016L32.8029 24.4723L32.8737 24.4016ZM38.5065 30.6256L38.5983 30.5858L38.5065 30.6256ZM38.5568 35.2715L38.6494 35.3093V35.3093L38.5568 35.2715ZM37.2454 37.2455L37.1747 37.1747L37.2454 37.2455ZM35.2712 38.5565L35.309 38.6491L35.2712 38.5565ZM30.6254 38.5054L30.6652 38.4137L30.6254 38.5054ZM28.6805 37.1512L28.7528 37.0821L28.7512 37.0805L28.6805 37.1512ZM24.3987 32.8722L24.4694 32.8015L24.3987 32.7308L24.328 32.8015L24.3987 32.8722ZM22.3024 34.9686L22.3731 35.0393L22.3731 35.0393L22.3024 34.9686ZM20.0354 35.5468L20.0636 35.4508H20.0636L20.0354 35.5468ZM19.0036 34.9091L19.0768 34.8409L19.0036 34.9091ZM18.4417 33.8341L18.344 33.8553L18.344 33.8553L18.4417 33.8341ZM16.9833 27.1073L17.081 27.0862L17.0639 27.0073H16.9833V27.1073ZM5.97996 27.1073L5.97985 27.2073H5.97996V27.1073ZM2.46026 25.6471L2.38955 25.7178H2.38955L2.46026 25.6471ZM1 22.1274H0.9L0.9 22.1275L1 22.1274ZM1 5.97996L0.9 5.97985V5.97996H1ZM2.46026 2.46026L2.38955 2.38955L2.46026 2.46026ZM5.97996 1V0.9L5.97985 0.9L5.97996 1ZM22.1264 1L22.1265 0.9H22.1264V1ZM25.6461 2.46026L25.7168 2.38955V2.38955L25.6461 2.46026ZM27.1064 5.97996H27.2064V5.97985L27.1064 5.97996ZM27.1064 16.9833H27.0064V17.0639L27.0852 17.081L27.1064 16.9833ZM33.835 18.4446L33.8138 18.5423L33.8138 18.5423L33.835 18.4446ZM34.9102 19.0061L34.8421 19.0794L34.9102 19.0061ZM34.97 22.3048L34.8993 22.234L34.8993 22.2341L34.97 22.3048ZM5.97996 24.7359L5.97985 24.8359H5.97996V24.7359ZM4.13627 23.9711L4.20698 23.9004H4.20698L4.13627 23.9711ZM16.4706 24.7359V24.8359H16.5946L16.5683 24.7147L16.4706 24.7359ZM14.9368 17.6611L14.839 17.6822L14.8391 17.6822L14.9368 17.6611ZM15.556 15.555L15.4853 15.4843L15.556 15.555ZM17.662 14.9354L17.6832 14.8376L17.6832 14.8376L17.662 14.9354ZM24.735 16.4692L24.7138 16.5669L24.835 16.5932V16.4692H24.735ZM24.735 5.98091H24.835V5.9808L24.735 5.98091ZM23.9701 4.13722L24.0408 4.06651V4.06651L23.9701 4.13722ZM22.1264 3.37236L22.1265 3.27236H22.1264V3.37236ZM5.97996 3.37236V3.27236L5.97985 3.27236L5.97996 3.37236ZM4.13627 4.13722L4.06556 4.06651L4.13627 4.13722ZM3.37141 5.98091L3.27141 5.9808V5.98091H3.37141ZM3.37141 22.1274H3.27141L3.27141 22.1275L3.37141 22.1274ZM35.4756 35.4746L35.4048 35.4039L35.4048 35.4039L35.4756 35.4746ZM34.3012 36.2596L34.3395 36.3519L34.3012 36.2596ZM35.476 30.3552L35.5468 30.2845L35.5467 30.2845L35.476 30.3552ZM31.1402 26.0193L31.0694 26.09L31.0694 26.09L31.1402 26.0193ZM31.1402 22.7786L31.0694 22.7079L31.0694 22.7079L31.1402 22.7786ZM33.19 20.7287L33.2607 20.7994L33.3903 20.6698L33.2112 20.631L33.19 20.7287ZM17.2807 17.2793L17.3019 17.1815L17.15 17.1486L17.183 17.3005L17.2807 17.2793ZM20.7301 33.1886L20.6324 33.2098L20.6712 33.3889L20.8008 33.2593L20.7301 33.1886ZM22.7795 31.1392L22.8502 31.2099L22.8502 31.2099L22.7795 31.1392ZM23.523 30.6422L23.5613 30.7346H23.5613L23.523 30.6422ZM25.2773 30.6422L25.239 30.7346H25.239L25.2773 30.6422ZM26.0208 31.1392L25.95 31.2099L25.95 31.2099L26.0208 31.1392ZM30.3562 35.4746L30.4269 35.4039L30.4269 35.4039L30.3562 35.4746ZM31.5305 36.2596L31.4922 36.3519H31.4922L31.5305 36.2596ZM13.6783 7.27408L13.6076 7.34479L13.6783 7.27408ZM13.6783 8.95092L13.6076 8.88021L13.6783 8.95092ZM7.27622 8.95092L7.34693 8.88021L7.27622 8.95092ZM37.2233 28.6098L32.9444 24.3308L32.8029 24.4723L37.0819 28.7512L37.2233 28.6098ZM38.5983 30.5858C38.2757 29.8416 37.8077 29.1693 37.2218 28.6083L37.0835 28.7528C37.6501 29.2953 38.1028 29.9456 38.4148 30.6654L38.5983 30.5858ZM39.1003 32.9424C39.0915 32.1313 38.9208 31.3301 38.5983 30.5858L38.4148 30.6654C38.7267 31.3852 38.8918 32.1601 38.9003 32.9446L39.1003 32.9424ZM38.6494 35.3093C38.9558 34.5582 39.1091 33.7535 39.1003 32.9424L38.9003 32.9446C38.9088 33.729 38.7606 34.5073 38.4643 35.2337L38.6494 35.3093ZM37.3161 37.3162C37.8898 36.7426 38.3431 36.0603 38.6494 35.3093L38.4643 35.2337C38.1679 35.9601 37.7295 36.62 37.1747 37.1747L37.3161 37.3162ZM35.309 38.6491C36.0601 38.3429 36.7425 37.8897 37.3161 37.3162L37.1747 37.1747C36.6199 37.7294 35.9599 38.1677 35.2335 38.4639L35.309 38.6491ZM32.9421 39.0996C33.7532 39.1086 34.5579 38.9554 35.309 38.6491L35.2335 38.4639C34.507 38.7601 33.7287 38.9083 32.9443 38.8996L32.9421 39.0996ZM30.5856 38.5972C31.3298 38.9199 32.1309 39.0907 32.9421 39.0996L32.9443 38.8996C32.1598 38.891 31.3849 38.7258 30.6652 38.4137L30.5856 38.5972ZM28.6083 37.2204C29.1691 37.8064 29.8414 38.2745 30.5856 38.5972L30.6652 38.4137C29.9454 38.1016 29.2952 37.6488 28.7528 37.0821L28.6083 37.2204ZM24.328 32.943L28.6098 37.222L28.7512 37.0805L24.4694 32.8015L24.328 32.943ZM22.3731 35.0393L24.4694 32.9429L24.328 32.8015L22.2317 34.8979L22.3731 35.0393ZM21.273 35.6656C21.6892 35.5594 22.0693 35.343 22.3731 35.0393L22.2317 34.8979C21.9533 35.1762 21.605 35.3745 21.2235 35.4718L21.273 35.6656ZM20.0073 35.6427C20.4194 35.7639 20.8567 35.7717 21.273 35.6656L21.2235 35.4718C20.842 35.5691 20.4414 35.5619 20.0636 35.4508L20.0073 35.6427ZM18.9304 34.9772C19.2231 35.2917 19.5951 35.5216 20.0073 35.6427L20.0636 35.4508C19.6859 35.3398 19.345 35.1292 19.0768 34.8409L18.9304 34.9772ZM18.344 33.8553C18.4352 34.2751 18.6378 34.6627 18.9304 34.9772L19.0768 34.8409C18.8086 34.5527 18.623 34.1976 18.5394 33.8129L18.344 33.8553ZM16.8856 27.1285L18.344 33.8553L18.5395 33.8129L17.081 27.0862L16.8856 27.1285ZM5.97996 27.2073H16.9833V27.0073H5.97996V27.2073ZM2.38955 25.7178C3.34187 26.6701 4.63306 27.2058 5.97985 27.2073L5.98008 27.0073C4.68625 27.0059 3.44584 26.4912 2.53097 25.5764L2.38955 25.7178ZM0.9 22.1275C0.901537 23.4743 1.43723 24.7655 2.38955 25.7178L2.53097 25.5764C1.6161 24.6615 1.10148 23.4211 1.1 22.1273L0.9 22.1275ZM0.9 5.97996V22.1274H1.1V5.97996H0.9ZM2.38955 2.38955C1.43723 3.34187 0.901537 4.63306 0.9 5.97985L1.1 5.98008C1.10148 4.68625 1.6161 3.44584 2.53097 2.53097L2.38955 2.38955ZM5.97985 0.9C4.63306 0.901537 3.34187 1.43723 2.38955 2.38955L2.53097 2.53097C3.44584 1.6161 4.68625 1.10148 5.98008 1.1L5.97985 0.9ZM22.1264 0.9H5.97996V1.1H22.1264V0.9ZM25.7168 2.38955C24.7645 1.43723 23.4733 0.901537 22.1265 0.9L22.1263 1.1C23.4201 1.10148 24.6605 1.6161 25.5754 2.53097L25.7168 2.38955ZM27.2064 5.97985C27.2048 4.63306 26.6692 3.34187 25.7168 2.38955L25.5754 2.53097C26.4903 3.44584 27.0049 4.68625 27.0064 5.98008L27.2064 5.97985ZM27.2064 16.9833V5.97996H27.0064V16.9833H27.2064ZM33.8562 18.3469L27.1276 16.8856L27.0852 17.081L33.8138 18.5423L33.8562 18.3469ZM34.9783 18.9329C34.6637 18.6403 34.2761 18.4379 33.8562 18.3468L33.8138 18.5423C34.1986 18.6257 34.5538 18.8112 34.8421 19.0794L34.9783 18.9329ZM35.6441 20.0096C35.5229 19.5974 35.2929 19.2255 34.9783 18.9329L34.8421 19.0794C35.1304 19.3475 35.3411 19.6883 35.4522 20.066L35.6441 20.0096ZM35.667 21.2753C35.7732 20.859 35.7653 20.4218 35.6441 20.0096L35.4522 20.066C35.5632 20.4438 35.5705 20.8444 35.4732 21.2259L35.667 21.2753ZM35.0407 22.3755C35.3445 22.0717 35.5608 21.6916 35.667 21.2753L35.4732 21.2259C35.3759 21.6074 35.1777 21.9557 34.8993 22.234L35.0407 22.3755ZM32.9444 24.4723L35.0407 22.3755L34.8993 22.2341L32.8029 24.3309L32.9444 24.4723ZM5.98007 24.6359C5.31496 24.6352 4.67729 24.3707 4.20698 23.9004L4.06556 24.0418C4.57332 24.5495 5.26177 24.8351 5.97985 24.8359L5.98007 24.6359ZM16.4706 24.6359H5.97996V24.8359H16.4706V24.6359ZM14.8391 17.6822L16.3729 24.7571L16.5683 24.7147L15.0345 17.6399L14.8391 17.6822ZM14.8819 16.5009C14.769 16.8849 14.7543 17.2911 14.839 17.6822L15.0345 17.6399C14.9568 17.2814 14.9704 16.9092 15.0738 16.5573L14.8819 16.5009ZM15.4853 15.4843C15.2023 15.7673 14.9949 16.1169 14.8819 16.5009L15.0738 16.5573C15.1773 16.2054 15.3674 15.8851 15.6267 15.6257L15.4853 15.4843ZM16.5018 14.8807C16.1178 14.9937 15.7683 15.2012 15.4853 15.4843L15.6267 15.6257C15.8861 15.3663 16.2064 15.1761 16.5582 15.0726L16.5018 14.8807ZM17.6832 14.8376C17.292 14.7529 16.8858 14.7678 16.5018 14.8807L16.5582 15.0726C16.9101 14.9691 17.2824 14.9555 17.6408 15.0331L17.6832 14.8376ZM24.7562 16.3715L17.6832 14.8376L17.6408 15.0331L24.7138 16.5669L24.7562 16.3715ZM24.635 5.98091V16.4692H24.835V5.98091H24.635ZM23.8994 4.20793C24.3697 4.67824 24.6342 5.3159 24.635 5.98102L24.835 5.9808C24.8342 5.26272 24.5486 4.57427 24.0408 4.06651L23.8994 4.20793ZM22.1263 3.47236C22.7914 3.47308 23.4291 3.73762 23.8994 4.20793L24.0408 4.06651C23.5331 3.55875 22.8446 3.27314 22.1265 3.27236L22.1263 3.47236ZM5.97996 3.47236H22.1264V3.27236H5.97996V3.47236ZM4.20698 4.20793C4.67729 3.73762 5.31496 3.47308 5.98007 3.47236L5.97985 3.27236C5.26177 3.27314 4.57332 3.55875 4.06556 4.06651L4.20698 4.20793ZM3.47141 5.98102C3.47213 5.3159 3.73667 4.67824 4.20698 4.20793L4.06556 4.06651C3.5578 4.57427 3.27219 5.26272 3.27141 5.9808L3.47141 5.98102ZM3.47141 22.1274V5.98091H3.27141V22.1274H3.47141ZM4.20698 23.9004C3.73667 23.4301 3.47213 22.7924 3.47141 22.1273L3.27141 22.1275C3.27219 22.8456 3.5578 23.534 4.06556 24.0418L4.20698 23.9004ZM35.4048 35.4039C35.078 35.7309 34.69 35.9902 34.2629 36.1672L34.3395 36.3519C34.7908 36.1649 35.2009 35.8908 35.5463 35.5453L35.4048 35.4039ZM36.4362 32.9149C36.4362 33.8484 36.0649 34.7437 35.4048 35.4039L35.5463 35.5453C36.2438 34.8477 36.6362 33.9015 36.6362 32.9149H36.4362ZM35.4053 30.4259C36.0654 31.0861 36.4362 31.9814 36.4362 32.9149H36.6362C36.6362 31.9284 36.2443 30.9822 35.5468 30.2845L35.4053 30.4259ZM31.0694 26.09L35.4053 30.4259L35.5467 30.2845L31.2109 25.9486L31.0694 26.09ZM30.369 24.399C30.369 25.0332 30.621 25.6415 31.0694 26.09L31.2109 25.9486C30.7999 25.5376 30.569 24.9802 30.569 24.399H30.369ZM31.0694 22.7079C30.621 23.1564 30.369 23.7647 30.369 24.399H30.569C30.569 23.8177 30.7999 23.2603 31.2109 22.8493L31.0694 22.7079ZM33.1193 20.658L31.0694 22.7079L31.2109 22.8493L33.2607 20.7994L33.1193 20.658ZM17.2595 17.377L33.1688 20.8264L33.2112 20.631L17.3019 17.1815L17.2595 17.377ZM20.8279 33.1674L17.3784 17.2581L17.183 17.3005L20.6324 33.2098L20.8279 33.1674ZM22.7088 31.0685L20.6594 33.1179L20.8008 33.2593L22.8502 31.2099L22.7088 31.0685ZM23.4847 30.5498C23.1945 30.6701 22.9308 30.8463 22.7088 31.0685L22.8502 31.2099C23.0537 31.0063 23.2953 30.8448 23.5613 30.7346L23.4847 30.5498ZM24.4001 30.3677C24.086 30.3677 23.7749 30.4296 23.4847 30.5498L23.5613 30.7346C23.8272 30.6244 24.1123 30.5677 24.4001 30.5677V30.3677ZM25.3155 30.5498C25.0253 30.4296 24.7143 30.3677 24.4001 30.3677V30.5677C24.688 30.5677 24.973 30.6244 25.239 30.7346L25.3155 30.5498ZM26.0915 31.0685C25.8694 30.8463 25.6057 30.6701 25.3155 30.5498L25.239 30.7346C25.5049 30.8448 25.7465 31.0063 25.95 31.2099L26.0915 31.0685ZM30.4269 35.4039L26.0915 31.0685L25.95 31.2099L30.2855 35.5453L30.4269 35.4039ZM31.5688 36.1672C31.1417 35.9902 30.7537 35.7309 30.4269 35.4039L30.2854 35.5453C30.6308 35.8908 31.0409 36.1649 31.4922 36.3519L31.5688 36.1672ZM32.9159 36.4352C32.4536 36.4352 31.9958 36.3441 31.5688 36.1672L31.4922 36.3519C31.9436 36.5389 32.4273 36.6352 32.9159 36.6352V36.4352ZM34.2629 36.1672C33.8359 36.3441 33.3781 36.4352 32.9159 36.4352V36.6352C33.4044 36.6352 33.8882 36.5389 34.3395 36.3519L34.2629 36.1672ZM12.8399 6.8268H8.11464V7.0268H12.8399V6.8268ZM13.749 7.20337C13.5079 6.96225 13.1809 6.8268 12.8399 6.8268V7.0268C13.1279 7.0268 13.404 7.14118 13.6076 7.34479L13.749 7.20337ZM14.1256 8.1125C14.1256 7.77151 13.9902 7.44449 13.749 7.20337L13.6076 7.34479C13.8112 7.5484 13.9256 7.82455 13.9256 8.1125H14.1256ZM13.749 9.02163C13.9902 8.78052 14.1256 8.45349 14.1256 8.1125H13.9256C13.9256 8.40045 13.8112 8.6766 13.6076 8.88021L13.749 9.02163ZM12.8399 9.39821C13.1809 9.39821 13.5079 9.26275 13.749 9.02163L13.6076 8.88021C13.404 9.08382 13.1279 9.19821 12.8399 9.19821V9.39821ZM8.11464 9.39821H12.8399V9.19821H8.11464V9.39821ZM7.20551 9.02163C7.44663 9.26275 7.77365 9.39821 8.11464 9.39821V9.19821C7.82669 9.19821 7.55054 9.08382 7.34693 8.88021L7.20551 9.02163ZM6.82894 8.1125C6.82894 8.45349 6.96439 8.78052 7.20551 9.02163L7.34693 8.88021C7.14332 8.6766 7.02894 8.40045 7.02894 8.1125H6.82894ZM7.20551 7.20337C6.96439 7.44449 6.82894 7.77151 6.82894 8.1125H7.02894C7.02894 7.82455 7.14332 7.5484 7.34693 7.34479L7.20551 7.20337ZM8.11464 6.8268C7.77365 6.8268 7.44663 6.96225 7.20551 7.20337L7.34693 7.34479C7.55054 7.14118 7.82669 7.0268 8.11464 7.0268V6.8268Z" fill="#DA202A"/>
</svg>
