<svg width="41" height="40" viewBox="0 0 41 40" fill="none" xmlns="http://www.w3.org/2000/svg">
<path d="M20.9374 2.00167C20.6695 2.01733 20.4021 2.11243 20.1973 2.27074L1.52066 16.574C0.953432 17.002 0.827567 17.9043 1.25271 18.4592C1.67785 19.0298 2.57569 19.1562 3.14236 18.7126L5.4415 16.9388V36.4221C5.4415 37.1342 6.07138 37.768 6.78014 37.768H35.22C35.9288 37.768 36.5587 37.1342 36.5587 36.4221V16.9388L38.8578 18.7126C39.4245 19.1557 40.3217 19.0292 40.7475 18.4592C41.1726 17.9048 41.0462 17.002 40.4795 16.574L21.8034 2.27074C21.5516 2.0811 21.2361 1.986 20.9374 2.00167ZM21.0001 5.0269L33.897 14.8953V35.0913H26.7792V23.0211C26.7792 22.3084 26.1494 21.6746 25.4406 21.6746H16.5596C15.8038 21.6746 15.2209 22.4511 15.2209 23.0211V35.0907H8.10312V14.8953L21.0001 5.0269ZM17.882 24.3514H24.1176V35.0907H17.882V24.3514Z" fill="#DA202A"/>
</svg>
