<svg width="41" height="40" viewBox="0 0 41 40" fill="none" xmlns="http://www.w3.org/2000/svg">
<path d="M21 37C27.052 37 32.6953 33.7431 35.7277 28.5007C36.1194 27.8235 35.8878 26.9573 35.2106 26.5655C34.532 26.1724 33.6657 26.404 33.2747 27.0826C30.7474 31.4523 26.044 34.1667 21 34.1667C13.1885 34.1667 6.83333 27.8115 6.83333 20C6.83333 12.1885 13.1885 5.83333 21 5.83333C25.4724 5.83333 29.6728 7.97038 32.3305 11.5H27.375C26.593 11.5 25.9583 12.1347 25.9583 12.9167C25.9583 13.6987 26.593 14.3333 27.375 14.3333H35.1667C35.9487 14.3333 36.5833 13.6987 36.5833 12.9167V5.125C36.5833 4.343 35.9487 3.70833 35.1667 3.70833C34.3847 3.70833 33.75 4.343 33.75 5.125V8.75663C30.554 5.14554 25.9116 3 21 3C11.6259 3 4 10.6266 4 20C4 29.3734 11.6259 37 21 37Z" fill="#DA202A"/>
</svg>
