<svg width="41" height="40" viewBox="0 0 41 40" fill="none" xmlns="http://www.w3.org/2000/svg">
<path fill-rule="evenodd" clip-rule="evenodd" d="M4.94491 13.3976V35.0551H36.7117V24.9746H23.6401V28.0707C23.6401 28.8616 22.7462 29.3217 22.1025 28.8621L16.4229 24.8063C15.8798 24.4184 15.8798 23.6113 16.4229 23.2235L22.1025 19.1677C22.7462 18.7081 23.6401 19.1682 23.6401 19.9591V23.0297H37.6842C38.2212 23.0297 38.6566 23.4651 38.6566 24.0022V36.0276C38.6566 36.5646 38.2212 37 37.6842 37H3.97245C3.43538 37 3 36.5646 3 36.0276V12.3858H3.00469C3.00814 12.3051 3.02183 12.2231 3.04682 12.1413L5.62667 3.68858C5.75153 3.27948 6.12904 3 6.55676 3H35.1041C35.5316 3 35.909 3.27925 36.034 3.6881L38.6186 12.1408C38.6617 12.282 38.6713 12.4235 38.6527 12.558V18.3911C38.6527 18.9282 38.2173 19.3636 37.6803 19.3636C37.1432 19.3636 36.7078 18.9282 36.7078 18.3911V13.3976H4.94491ZM34.3845 4.94491L36.3744 11.4527H21.8007V5.10088C21.8007 5.04779 21.7965 4.99569 21.7883 4.94491H34.3845ZM19.8682 4.94491C19.8601 4.99569 19.8558 5.04779 19.8558 5.10088V11.4527H5.29046L7.2767 4.94491H19.8682Z" fill="#DA202A"/>
<path d="M4.94491 13.3976V13.1476H4.69491V13.3976H4.94491ZM4.94491 35.0551H4.69491V35.3051H4.94491V35.0551ZM36.7117 35.0551V35.3051H36.9617V35.0551H36.7117ZM36.7117 24.9746H36.9617V24.7246H36.7117V24.9746ZM23.6401 24.9746V24.7246H23.3901V24.9746H23.6401ZM22.1025 28.8621L21.9573 29.0655L22.1025 28.8621ZM16.4229 24.8063L16.5682 24.6028H16.5682L16.4229 24.8063ZM16.4229 23.2235L16.5682 23.4269H16.5682L16.4229 23.2235ZM22.1025 19.1677L21.9573 18.9643V18.9643L22.1025 19.1677ZM23.6401 23.0297H23.3901V23.2797H23.6401V23.0297ZM3 12.3858V12.1358H2.75V12.3858H3ZM3.00469 12.3858V12.6358H3.24422L3.25446 12.3965L3.00469 12.3858ZM3.04682 12.1413L3.28593 12.2142H3.28593L3.04682 12.1413ZM5.62667 3.68858L5.86578 3.76156V3.76156L5.62667 3.68858ZM36.034 3.6881L36.2731 3.615V3.615L36.034 3.6881ZM38.6186 12.1408L38.8577 12.0677L38.6186 12.1408ZM38.6527 12.558L38.4051 12.5237L38.4027 12.5408V12.558H38.6527ZM36.7078 13.3976H36.9578V13.1476H36.7078V13.3976ZM36.3744 11.4527V11.7027H36.7122L36.6135 11.3796L36.3744 11.4527ZM34.3845 4.94491L34.6236 4.8718L34.5695 4.69491H34.3845V4.94491ZM21.8007 11.4527H21.5507V11.7027H21.8007V11.4527ZM21.7883 4.94491V4.69491H21.4947L21.5415 4.9847L21.7883 4.94491ZM19.8682 4.94491L20.1151 4.9847L20.1618 4.69491H19.8682V4.94491ZM19.8558 11.4527V11.7027H20.1058V11.4527H19.8558ZM5.29046 11.4527L5.05135 11.3797L4.95277 11.7027H5.29046V11.4527ZM7.2767 4.94491V4.69491H7.09162L7.03759 4.87193L7.2767 4.94491ZM4.69491 13.3976V35.0551H5.19491V13.3976H4.69491ZM4.94491 35.3051H36.7117V34.8051H4.94491V35.3051ZM36.9617 35.0551V24.9746H36.4617V35.0551H36.9617ZM36.7117 24.7246H23.6401V25.2246H36.7117V24.7246ZM23.3901 24.9746V28.0707H23.8901V24.9746H23.3901ZM23.3901 28.0707C23.3901 28.6582 22.726 29.0001 22.2478 28.6586L21.9573 29.0655C22.7664 29.6433 23.8901 29.0649 23.8901 28.0707H23.3901ZM22.2478 28.6586L16.5682 24.6028L16.2777 25.0097L21.9573 29.0655L22.2478 28.6586ZM16.5682 24.6028C16.1648 24.3147 16.1648 23.7151 16.5682 23.4269L16.2777 23.02C15.5949 23.5076 15.5949 24.5222 16.2777 25.0097L16.5682 24.6028ZM16.5682 23.4269L22.2478 19.3712L21.9573 18.9643L16.2777 23.02L16.5682 23.4269ZM22.2478 19.3712C22.726 19.0297 23.3901 19.3715 23.3901 19.9591H23.8901C23.8901 18.9649 22.7664 18.3865 21.9573 18.9643L22.2478 19.3712ZM23.3901 19.9591V23.0297H23.8901V19.9591H23.3901ZM23.6401 23.2797H37.6842V22.7797H23.6401V23.2797ZM37.6842 23.2797C38.0832 23.2797 38.4066 23.6032 38.4066 24.0022H38.9066C38.9066 23.327 38.3593 22.7797 37.6842 22.7797V23.2797ZM38.4066 24.0022V36.0276H38.9066V24.0022H38.4066ZM38.4066 36.0276C38.4066 36.4266 38.0832 36.75 37.6842 36.75V37.25C38.3593 37.25 38.9066 36.7027 38.9066 36.0276H38.4066ZM37.6842 36.75H3.97245V37.25H37.6842V36.75ZM3.97245 36.75C3.57345 36.75 3.25 36.4266 3.25 36.0276H2.75C2.75 36.7027 3.29731 37.25 3.97245 37.25V36.75ZM3.25 36.0276V12.3858H2.75V36.0276H3.25ZM3 12.6358H3.00469V12.1358H3V12.6358ZM3.25446 12.3965C3.25701 12.3369 3.26713 12.2758 3.28593 12.2142L2.80771 12.0683C2.77652 12.1705 2.75927 12.2734 2.75491 12.3751L3.25446 12.3965ZM3.28593 12.2142L5.86578 3.76156L5.38756 3.6156L2.80771 12.0683L3.28593 12.2142ZM5.86578 3.76156C5.95854 3.45763 6.239 3.25 6.55676 3.25V2.75C6.01908 2.75 5.54452 3.10133 5.38756 3.6156L5.86578 3.76156ZM6.55676 3.25H35.1041V2.75H6.55676V3.25ZM35.1041 3.25C35.4217 3.25 35.7021 3.45746 35.795 3.76121L36.2731 3.615C36.116 3.10103 35.6415 2.75 35.1041 2.75V3.25ZM35.795 3.76121L38.3795 12.2139L38.8577 12.0677L36.2731 3.615L35.795 3.76121ZM38.3795 12.2139C38.4119 12.3198 38.4188 12.4247 38.4051 12.5237L38.9004 12.5922C38.9238 12.4223 38.9116 12.2441 38.8577 12.0677L38.3795 12.2139ZM38.9027 18.3911V12.558H38.4027V18.3911H38.9027ZM37.6803 19.6136C38.3554 19.6136 38.9027 19.0663 38.9027 18.3911H38.4027C38.4027 18.7901 38.0793 19.1136 37.6803 19.1136V19.6136ZM36.4578 18.3911C36.4578 19.0663 37.0051 19.6136 37.6803 19.6136V19.1136C37.2813 19.1136 36.9578 18.7901 36.9578 18.3911H36.4578ZM36.4578 13.3976V18.3911H36.9578V13.3976H36.4578ZM36.7078 13.1476H4.94491V13.6476H36.7078V13.1476ZM36.6135 11.3796L34.6236 4.8718L34.1455 5.01801L36.1353 11.5258L36.6135 11.3796ZM21.8007 11.7027H36.3744V11.2027H21.8007V11.7027ZM21.5507 5.10088V11.4527H22.0507V5.10088H21.5507ZM21.5415 4.9847C21.5475 5.02238 21.5507 5.06117 21.5507 5.10088H22.0507C22.0507 5.03441 22.0454 4.969 22.0351 4.90511L21.5415 4.9847ZM34.3845 4.69491H21.7883V5.19491H34.3845V4.69491ZM20.1058 5.10088C20.1058 5.06117 20.109 5.02238 20.1151 4.9847L19.6214 4.90511C19.6111 4.969 19.6058 5.03441 19.6058 5.10088H20.1058ZM20.1058 11.4527V5.10088H19.6058V11.4527H20.1058ZM5.29046 11.7027H19.8558V11.2027H5.29046V11.7027ZM7.03759 4.87193L5.05135 11.3797L5.52957 11.5257L7.51581 5.01788L7.03759 4.87193ZM19.8682 4.69491H7.2767V5.19491H19.8682V4.69491Z" fill="#DA202A"/>
</svg>
