<svg width="24" height="26" viewBox="0 0 24 26" fill="none" xmlns="http://www.w3.org/2000/svg">
<path d="M6 5C3.243 5 1 7.243 1 10V16.5C1 17.8785 2.1215 19 3.5 19H7V24C7 24.552 7.448 25 8 25C8.552 25 9 24.552 9 24V19H11V24C11 24.552 11.448 25 12 25C12.552 25 13 24.552 13 24V19H20.5C21.8785 19 23 17.8785 23 16.5V10C23 7.243 20.757 5 18 5H9.83649V2C9.83649 1.448 9.3885 1 8.8365 1H6.6075C6.0555 1 5.6075 1.448 5.6075 2C5.6075 2.552 6.0555 3 6.6075 3H7.8365V5H6ZM21 10V16.5C21 16.776 20.7755 17 20.5 17H15V10C15 8.3455 16.3455 7 18 7C19.6545 7 21 8.3455 21 10ZM14.0095 7C13.3785 7.837 13 8.874 13 10V17H3.5C3.2245 17 3 16.776 3 16.5V10C3 8.3455 4.3455 7 6 7H7.8365V10C7.8365 10.552 8.2845 11 8.8365 11C9.3885 11 9.83649 10.552 9.83649 10V7H14.0095Z" fill="#DA202A" stroke="#DA202A" stroke-width="0.2"/>
</svg>
