<svg width="25" height="25" viewBox="0 0 25 25" fill="none" xmlns="http://www.w3.org/2000/svg">
<path d="M23.3436 1.65639C22.7612 1.074 21.9119 0.857244 21.1228 1.09483L2.59825 6.61941C1.71657 6.88167 1.1095 7.61371 1.01308 8.52933C0.916656 9.44418 1.35865 10.2865 2.16628 10.727L9.78128 14.8808C9.92476 14.9595 10.0412 15.076 10.1191 15.2187L14.273 22.8329C14.6741 23.568 15.4061 24 16.2238 24C16.3048 24 16.3881 23.9961 16.4706 23.9869C17.3855 23.8905 18.1175 23.2834 18.3798 22.4009L23.9044 3.87717C24.1404 3.0896 23.9252 2.238 23.3436 1.65639ZM22.5745 3.48069L17.0499 22.0052C16.9003 22.5074 16.4575 22.593 16.3256 22.6061C16.1929 22.62 15.7432 22.6285 15.4918 22.1688L11.3703 14.6139L17.6285 8.355C17.9 8.08424 17.9 7.64456 17.6285 7.37381C17.3569 7.10229 16.918 7.10229 16.6473 7.37381L10.3891 13.6312L2.83121 9.5082C2.36992 9.25673 2.37995 8.80625 2.39384 8.67435C2.40772 8.54244 2.4918 8.09967 2.99551 7.95003L21.5193 2.42545C21.6018 2.40076 21.6851 2.38919 21.7669 2.38919C21.9867 2.38919 22.1981 2.47559 22.3616 2.63912C22.5853 2.86204 22.6648 3.17754 22.5745 3.48069Z" fill="#DA202A" stroke="#DA202A" stroke-width="0.7"/>
</svg>
