<svg width="26" height="24" viewBox="0 0 26 24" fill="none" xmlns="http://www.w3.org/2000/svg">
<path d="M23.5895 8.99126C23.5126 8.85501 23.401 8.74159 23.2659 8.66256C23.1309 8.58352 22.9774 8.5417 22.8209 8.54135H22.3148C22.1161 7.43138 21.6416 6.38916 20.9349 5.51052C20.2282 4.63187 19.3119 3.945 18.2703 3.51306C17.2287 3.08112 16.0953 2.91797 14.9741 3.03861C13.853 3.15925 12.7802 3.55982 11.8544 4.20348L2.00135 9.07749H1.88138C1.7588 9.07699 1.63747 9.10208 1.52514 9.15114C1.4128 9.20021 1.31195 9.27217 1.22901 9.36244C1.14637 9.45368 1.08368 9.56116 1.04494 9.67801C1.00621 9.79486 0.992282 9.91851 1.00406 10.041C1.19152 11.9869 1.99761 18.5293 4.7533 21.0376C4.91714 21.1812 5.12784 21.2598 5.34568 21.2588H21.2837C21.4348 21.2597 21.5835 21.2211 21.715 21.1468C21.8466 21.0724 21.9564 20.965 22.0336 20.8351C22.101 20.7264 22.2473 20.5389 22.4085 20.3252C23.627 18.8105 26.8363 14.7838 23.5895 8.99126ZM21.5762 8.54135H19.5328C19.3551 7.9675 19.0509 7.4408 18.6428 6.99999C18.2346 6.55918 17.7329 6.21546 17.1744 5.99413C16.6159 5.7728 16.0149 5.67948 15.4156 5.72103C14.8163 5.76259 14.2339 5.93796 13.7113 6.23425C13.1887 6.53054 12.7392 6.94021 12.3958 7.43314C12.0524 7.92606 11.8239 8.48969 11.727 9.08258C11.6301 9.67547 11.6674 10.2825 11.8361 10.8591C12.0048 11.4357 12.3006 11.9671 12.7017 12.4143C12.2695 12.9215 11.7641 13.3612 11.202 13.7191C10.6418 13.0863 10.2217 12.3423 9.96905 11.5358C9.71645 10.7293 9.63711 9.87853 9.73623 9.03924C9.83534 8.19996 10.1107 7.39108 10.5442 6.66562C10.9777 5.94016 11.5596 5.31449 12.2518 4.8296L13.1516 4.38344C13.2152 4.35044 13.2664 4.29786 13.2978 4.23347C14.1179 3.87568 15.0076 3.70586 15.9019 3.73647C16.7961 3.76707 17.6721 3.99732 18.4658 4.41035C19.2595 4.82338 19.9508 5.40872 20.489 6.1235C21.0271 6.83829 21.3986 7.66441 21.5762 8.54135ZM13.1554 11.8332C12.6663 11.2433 12.4008 10.4999 12.4055 9.73361C12.402 8.96211 12.6692 8.21383 13.1607 7.61913C13.6522 7.02443 14.3367 6.62101 15.0951 6.47915C15.8534 6.33729 16.6375 6.46599 17.3108 6.84283C17.984 7.21966 18.5036 7.82074 18.7792 8.54135H15.2812C15.0893 8.54125 14.9026 8.60435 14.7502 8.72091C14.5977 8.83746 14.4878 9.00099 14.4376 9.18622C14.1609 10.1339 13.7275 11.0286 13.1554 11.8332ZM10.5571 14.0827C9.58641 14.5167 8.51529 14.6762 7.46025 14.5439C5.39067 14.3152 4.58458 12.0281 4.05219 10.5135C3.94502 10.1905 3.81985 9.87383 3.67727 9.56489C3.6068 9.42477 3.49914 9.30674 3.36608 9.22371L10.2047 5.84939C9.33233 7.06512 8.8923 8.53801 8.95482 10.033C9.01734 11.5281 9.57881 12.9591 10.5496 14.0977L10.5571 14.0827ZM21.8498 19.8716C21.6922 20.059 21.5458 20.2556 21.4112 20.4602C21.3978 20.4819 21.379 20.4999 21.3567 20.5124C21.3344 20.5248 21.3093 20.5314 21.2837 20.5314H5.33818C5.30134 20.5337 5.26505 20.5216 5.23695 20.4977C2.67997 18.1694 1.90762 11.8519 1.73141 9.97356C1.72746 9.94063 1.73544 9.90738 1.7539 9.87983C1.76784 9.86385 1.78517 9.85118 1.80463 9.84274C1.82409 9.83431 1.84519 9.83033 1.86638 9.83109H2.90492C2.93032 9.82957 2.95564 9.83506 2.97812 9.84696C3.0006 9.85887 3.01938 9.87672 3.0324 9.89858C3.12988 10.0973 3.23861 10.4085 3.36608 10.7647C3.92472 12.3506 4.86578 15.0013 7.38152 15.2637C8.74011 15.439 10.1192 15.1763 11.3182 14.5139C13.5903 13.2392 14.79 10.6897 15.1387 9.38493C15.1476 9.35388 15.1662 9.32653 15.1919 9.30694C15.2176 9.28735 15.2489 9.27657 15.2812 9.2762H22.8209C22.8479 9.27592 22.8745 9.28313 22.8976 9.29703C22.9208 9.31093 22.9397 9.33097 22.9521 9.35494C25.9628 14.7126 23.0796 18.3269 21.8498 19.8716Z" fill="#DA202A" stroke="#DA202A"/>
</svg>
