<svg width="26" height="26" viewBox="0 0 26 26" fill="none" xmlns="http://www.w3.org/2000/svg">
<path d="M24.315 1.68493C23.7073 1.07722 22.8211 0.851037 21.9977 1.09895L2.66774 6.86373C1.74773 7.1374 1.11426 7.90126 1.01365 8.85669C0.913032 9.81132 1.37425 10.6903 2.21699 11.1499L10.1631 15.4843C10.3128 15.5664 10.4343 15.688 10.5156 15.8369L14.8501 23.7822C15.2686 24.5492 16.0325 25 16.8857 25C16.9702 25 17.0571 24.996 17.1433 24.9863C18.0979 24.8857 18.8618 24.2522 19.1354 23.3314L24.9002 4.00227C25.1465 3.18045 24.9219 2.29183 24.315 1.68493ZM23.5125 3.58854L17.7478 22.9185C17.5916 23.4425 17.1296 23.5318 16.9919 23.5455C16.8535 23.56 16.3842 23.5689 16.1218 23.0891L11.8212 15.2058L18.3514 8.67478C18.6348 8.39226 18.6348 7.93346 18.3514 7.65093C18.0681 7.3676 17.6101 7.3676 17.3276 7.65093L10.7973 14.1804L2.91082 9.87812C2.42949 9.61572 2.43995 9.14565 2.45444 9.00801C2.46893 8.87037 2.55666 8.40835 3.08227 8.2522L22.4114 2.48742C22.4975 2.46167 22.5845 2.44959 22.6698 2.44959C22.8992 2.44959 23.1197 2.53974 23.2904 2.71038C23.5238 2.943 23.6067 3.27221 23.5125 3.58854Z" fill="#DA202A" stroke="#DA202A" stroke-width="0.7"/>
</svg>
