<svg width="20" height="26" viewBox="0 0 20 26" fill="none" xmlns="http://www.w3.org/2000/svg">
<path fill-rule="evenodd" clip-rule="evenodd" d="M1 9.97595C1 5.02719 5.02607 1 9.97595 1C14.9258 1 18.9519 5.02719 18.9519 9.97595C18.9519 17.4835 10.8086 24.5252 10.462 24.8211C10.3214 24.9404 10.1492 25 9.97595 25C9.80266 25 9.62938 24.9404 9.48985 24.8211C9.14328 24.5252 1 17.4835 1 9.97595ZM2.49543 9.97595C2.49543 15.7956 8.24647 21.6221 9.97595 23.2424C11.7054 21.6221 17.4565 15.7956 17.4565 9.97595C17.4565 5.85086 14.101 2.49543 9.97595 2.49543C5.85086 2.49543 2.49543 5.85198 2.49543 9.97595ZM5.48675 10.0084C5.48675 7.5329 7.50091 5.51987 9.97529 5.51987C12.4497 5.51987 14.4638 7.53403 14.4638 10.0084C14.4638 12.4839 12.4508 14.4969 9.97529 14.4969C7.49979 14.4969 5.48675 12.4828 5.48675 10.0084ZM6.98331 10.0084C6.98331 11.658 8.3257 13.0004 9.97529 13.0004C11.6249 13.0004 12.9673 11.658 12.9673 10.0084C12.9673 8.35882 11.6249 7.01643 9.97529 7.01643C8.3257 7.01643 6.98331 8.35882 6.98331 10.0084Z" fill="#DA202A"/>
<path d="M10.462 24.8211L10.6237 25.0118L10.6244 25.0112L10.462 24.8211ZM9.48985 24.8211L9.65229 24.6311L9.65219 24.631L9.48985 24.8211ZM9.97595 23.2424L9.80502 23.4248L9.97595 23.585L10.1469 23.4248L9.97595 23.2424ZM9.97595 0.75C4.88798 0.75 0.75 4.88914 0.75 9.97595H1.25C1.25 5.16524 5.16416 1.25 9.97595 1.25V0.75ZM19.2019 9.97595C19.2019 4.88914 15.0639 0.75 9.97595 0.75V1.25C14.7877 1.25 18.7019 5.16524 18.7019 9.97595H19.2019ZM10.6244 25.0112C10.8044 24.8575 12.9417 23.0099 15.036 20.2541C17.1251 17.5052 19.2019 13.8131 19.2019 9.97595H18.7019C18.7019 13.6463 16.7071 17.2288 14.6379 19.9516C12.5739 22.6675 10.4663 24.4887 10.2997 24.631L10.6244 25.0112ZM9.97595 25.25C10.207 25.25 10.4368 25.1702 10.6237 25.0118L10.3004 24.6304C10.2059 24.7105 10.0914 24.75 9.97595 24.75V25.25ZM9.3274 25.0111C9.51395 25.1706 9.74544 25.25 9.97595 25.25V24.75C9.85989 24.75 9.7448 24.7101 9.65229 24.6311L9.3274 25.0111ZM0.75 9.97595C0.75 13.8131 2.82684 17.5052 4.91592 20.2541C7.01023 23.0099 9.1475 24.8575 9.32751 25.0112L9.65219 24.631C9.48562 24.4887 7.37798 22.6675 5.314 19.9516C3.2448 17.2288 1.25 13.6463 1.25 9.97595H0.75ZM10.1469 23.06C9.28872 22.256 7.43253 20.4079 5.79262 18.0415C4.14877 15.6695 2.74543 12.8096 2.74543 9.97595H2.24543C2.24543 12.962 3.71761 15.9251 5.38165 18.3263C7.04963 20.7332 8.9337 22.6085 9.80502 23.4248L10.1469 23.06ZM17.2065 9.97595C17.2065 12.8096 15.8031 15.6695 14.1593 18.0415C12.5194 20.4079 10.6632 22.256 9.80502 23.06L10.1469 23.4248C11.0182 22.6085 12.9023 20.7332 14.5702 18.3263C16.2343 15.9251 17.7065 12.962 17.7065 9.97595H17.2065ZM9.97595 2.74543C13.963 2.74543 17.2065 5.98893 17.2065 9.97595H17.7065C17.7065 5.71279 14.2391 2.24543 9.97595 2.24543V2.74543ZM2.74543 9.97595C2.74543 5.99003 5.98896 2.74543 9.97595 2.74543V2.24543C5.71276 2.24543 2.24543 5.71394 2.24543 9.97595H2.74543ZM9.97529 5.26987C7.36288 5.26987 5.23675 7.39479 5.23675 10.0084H5.73675C5.73675 7.67102 7.63894 5.76987 9.97529 5.76987V5.26987ZM14.7138 10.0084C14.7138 7.39596 12.5877 5.26987 9.97529 5.26987V5.76987C12.3116 5.76987 14.2138 7.6721 14.2138 10.0084H14.7138ZM9.97529 14.7469C12.5889 14.7469 14.7138 12.622 14.7138 10.0084H14.2138C14.2138 12.3458 12.3127 14.2469 9.97529 14.2469V14.7469ZM5.23675 10.0084C5.23675 12.6208 7.36167 14.7469 9.97529 14.7469V14.2469C7.6379 14.2469 5.73675 12.3448 5.73675 10.0084H5.23675ZM9.97529 12.7504C8.46377 12.7504 7.23331 11.5199 7.23331 10.0084H6.73331C6.73331 11.7961 8.18763 13.2504 9.97529 13.2504V12.7504ZM12.7173 10.0084C12.7173 11.5199 11.4868 12.7504 9.97529 12.7504V13.2504C11.7629 13.2504 13.2173 11.7961 13.2173 10.0084H12.7173ZM9.97529 7.26643C11.4868 7.26643 12.7173 8.49689 12.7173 10.0084H13.2173C13.2173 8.22075 11.7629 6.76643 9.97529 6.76643V7.26643ZM7.23331 10.0084C7.23331 8.49689 8.46377 7.26643 9.97529 7.26643V6.76643C8.18763 6.76643 6.73331 8.22075 6.73331 10.0084H7.23331Z" fill="#DA202A"/>
</svg>
