<svg width="26" height="26" viewBox="0 0 26 26" fill="none" xmlns="http://www.w3.org/2000/svg">
<path fill-rule="evenodd" clip-rule="evenodd" d="M12.999 25C12.8076 25 12.6524 24.845 12.6524 24.6533V23.2148C7.28935 23.0374 2.96154 18.7097 2.78428 13.3465H1.34568C1.15424 13.3465 0.999023 13.1914 0.999023 12.9998C0.999023 12.8082 1.15424 12.6532 1.34568 12.6532H2.78455C2.96706 7.28936 7.29284 2.96262 12.6524 2.78523V1.34665C12.6524 1.15505 12.8076 1 12.999 1C13.1905 1 13.3457 1.15505 13.3457 1.34665V2.78557C18.706 2.96804 23.0309 7.29274 23.2135 12.6532H24.6524C24.8438 12.6532 24.999 12.8082 24.999 12.9998C24.999 13.1914 24.8438 13.3465 24.6524 13.3465H23.2138C23.0365 18.7063 18.7095 23.032 13.3457 23.2144V24.6533C13.3457 24.845 13.1905 25 12.999 25ZM4.89887 13.3465H3.47758C3.65417 18.3272 7.67166 22.3447 12.6524 22.5215V21.1001C12.6524 20.9085 12.8076 20.7535 12.999 20.7535C13.1905 20.7535 13.3457 20.9085 13.3457 21.1001V22.5211C18.3273 22.3394 22.3438 18.3238 22.5204 13.3465H21.0992C20.9077 13.3465 20.7525 13.1914 20.7525 12.9998C20.7525 12.8082 20.9077 12.6532 21.0992 12.6532H22.5202C22.3383 7.67519 18.3238 3.66067 13.3457 3.47888V4.89985C13.3457 5.09146 13.1905 5.2465 12.999 5.2465C12.8076 5.2465 12.6524 5.09146 12.6524 4.89985V3.47854C7.67513 3.65533 3.65967 7.67181 3.47786 12.6532H4.89887C5.09031 12.6532 5.24553 12.8082 5.24553 12.9998C5.24553 13.1914 5.09031 13.3465 4.89887 13.3465ZM12.9937 7.97722C15.7666 7.97722 18.0225 10.2332 18.0225 13.0061C18.0225 15.7732 15.7666 18.0244 12.9937 18.0244C10.2265 18.0244 7.97533 15.7732 7.97533 13.0061C7.97533 10.2332 10.2265 7.97722 12.9937 7.97722ZM12.9937 8.67053C10.6089 8.67053 8.66863 10.6154 8.66863 13.0061C8.66863 15.391 10.6089 17.3311 12.9937 17.3311C15.3844 17.3311 17.3292 15.391 17.3292 13.0061C17.3292 10.6154 15.3844 8.67053 12.9937 8.67053Z" fill="#DA202A"/>
<path d="M12.6524 23.2148H13.1524V22.731L12.6689 22.715L12.6524 23.2148ZM2.78428 13.3465L3.284 13.33L3.26802 12.8465H2.78428V13.3465ZM2.78455 12.6532V13.1532H3.26783L3.28426 12.6702L2.78455 12.6532ZM12.6524 2.78523L12.6689 3.28496L13.1524 3.26896V2.78523H12.6524ZM13.3457 2.78557H12.8457V3.26884L13.3287 3.28528L13.3457 2.78557ZM23.2135 12.6532L22.7138 12.6702L22.7302 13.1532H23.2135V12.6532ZM23.2138 13.3465V12.8465H22.73L22.714 13.33L23.2138 13.3465ZM13.3457 23.2144L13.3287 22.7147L12.8457 22.7311V23.2144H13.3457ZM3.47758 13.3465V12.8465H2.95954L2.9779 13.3642L3.47758 13.3465ZM12.6524 22.5215L12.6346 23.0211L13.1524 23.0395V22.5215H12.6524ZM13.3457 22.5211H12.8457V23.0397L13.3639 23.0208L13.3457 22.5211ZM22.5204 13.3465L23.0201 13.3642L23.0385 12.8465H22.5204V13.3465ZM22.5202 12.6532V13.1532H23.0388L23.0198 12.6349L22.5202 12.6532ZM13.3457 3.47888L13.3639 2.97921L12.8457 2.96028V3.47888H13.3457ZM12.6524 3.47854H13.1524V2.96046L12.6346 2.97885L12.6524 3.47854ZM3.47786 12.6532L2.97819 12.6349L2.95928 13.1532H3.47786V12.6532ZM12.1524 24.6533C12.1524 25.1213 12.5316 25.5 12.999 25.5V24.5C13.0836 24.5 13.1524 24.5687 13.1524 24.6533H12.1524ZM12.1524 23.2148V24.6533H13.1524V23.2148H12.1524ZM2.28455 13.363C2.47051 18.9894 7.00966 23.5284 12.6358 23.7145L12.6689 22.715C7.56905 22.5464 3.45257 18.43 3.284 13.33L2.28455 13.363ZM1.34568 13.8465H2.78428V12.8465H1.34568V13.8465ZM0.499023 12.9998C0.499023 13.4677 0.878255 13.8465 1.34568 13.8465V12.8465C1.43022 12.8465 1.49902 12.9151 1.49902 12.9998H0.499023ZM1.34568 12.1532C0.878257 12.1532 0.499023 12.5319 0.499023 12.9998H1.49902C1.49902 13.0845 1.43022 13.1532 1.34568 13.1532V12.1532ZM2.78455 12.1532H1.34568V13.1532H2.78455V12.1532ZM12.6358 2.28551C7.01286 2.47161 2.47628 7.00983 2.28484 12.6362L3.28426 12.6702C3.45784 7.56888 7.57283 3.45363 12.6689 3.28496L12.6358 2.28551ZM12.1524 1.34665V2.78523H13.1524V1.34665H12.1524ZM12.999 0.5C12.5316 0.5 12.1524 0.878745 12.1524 1.34665H13.1524C13.1524 1.43135 13.0836 1.5 12.999 1.5V0.5ZM13.8457 1.34665C13.8457 0.878745 13.4664 0.5 12.999 0.5V1.5C12.9145 1.5 12.8457 1.43135 12.8457 1.34665H13.8457ZM13.8457 2.78557V1.34665H12.8457V2.78557H13.8457ZM23.7132 12.6362C23.5217 7.01293 18.9858 2.47727 13.3627 2.28586L13.3287 3.28528C18.4262 3.4588 22.5401 7.57256 22.7138 12.6702L23.7132 12.6362ZM24.6524 12.1532H23.2135V13.1532H24.6524V12.1532ZM25.499 12.9998C25.499 12.5319 25.1198 12.1532 24.6524 12.1532V13.1532C24.5678 13.1532 24.499 13.0845 24.499 12.9998H25.499ZM24.6524 13.8465C25.1198 13.8465 25.499 13.4677 25.499 12.9998H24.499C24.499 12.9151 24.5678 12.8465 24.6524 12.8465V13.8465ZM23.2138 13.8465H24.6524V12.8465H23.2138V13.8465ZM13.3627 23.7141C18.989 23.5228 23.5275 18.9863 23.7135 13.363L22.714 13.33C22.5455 18.4263 18.43 22.5413 13.3287 22.7147L13.3627 23.7141ZM13.8457 24.6533V23.2144H12.8457V24.6533H13.8457ZM12.999 25.5C13.4664 25.5 13.8457 25.1213 13.8457 24.6533H12.8457C12.8457 24.5687 12.9145 24.5 12.999 24.5V25.5ZM3.47758 13.8465H4.89887V12.8465H3.47758V13.8465ZM12.6701 22.0218C7.95162 21.8544 4.14456 18.0472 3.97727 13.3288L2.9779 13.3642C3.16378 18.6071 7.3917 22.8351 12.6346 23.0211L12.6701 22.0218ZM12.1524 21.1001V22.5215H13.1524V21.1001H12.1524ZM12.999 20.2535C12.5316 20.2535 12.1524 20.6322 12.1524 21.1001H13.1524C13.1524 21.1848 13.0836 21.2535 12.999 21.2535V20.2535ZM13.8457 21.1001C13.8457 20.6322 13.4664 20.2535 12.999 20.2535V21.2535C12.9145 21.2535 12.8457 21.1848 12.8457 21.1001H13.8457ZM13.8457 22.5211V21.1001H12.8457V22.5211H13.8457ZM22.0208 13.3287C21.8534 18.0435 18.0475 21.8493 13.3274 22.0215L13.3639 23.0208C18.6071 22.8295 22.8341 18.604 23.0201 13.3642L22.0208 13.3287ZM21.0992 13.8465H22.5204V12.8465H21.0992V13.8465ZM20.2525 12.9998C20.2525 13.4677 20.6317 13.8465 21.0992 13.8465V12.8465C21.1837 12.8465 21.2525 12.9151 21.2525 12.9998H20.2525ZM21.0992 12.1532C20.6318 12.1532 20.2525 12.5319 20.2525 12.9998H21.2525C21.2525 13.0845 21.1837 13.1532 21.0992 13.1532V12.1532ZM22.5202 12.1532H21.0992V13.1532H22.5202V12.1532ZM13.3274 3.97854C18.0438 4.15077 21.8482 7.95526 22.0205 12.6714L23.0198 12.6349C22.8284 7.39513 18.6039 3.17056 13.3639 2.97921L13.3274 3.97854ZM13.8457 4.89985V3.47888H12.8457V4.89985H13.8457ZM12.999 5.7465C13.4664 5.7465 13.8457 5.36776 13.8457 4.89985H12.8457C12.8457 4.81516 12.9145 4.7465 12.999 4.7465V5.7465ZM12.1524 4.89985C12.1524 5.36776 12.5316 5.7465 12.999 5.7465V4.7465C13.0836 4.7465 13.1524 4.81516 13.1524 4.89985H12.1524ZM12.1524 3.47854V4.89985H13.1524V3.47854H12.1524ZM3.97753 12.6714C4.14979 7.95158 7.95538 4.1457 12.6701 3.97822L12.6346 2.97885C7.39487 3.16497 3.16955 7.39204 2.97819 12.6349L3.97753 12.6714ZM4.89887 12.1532H3.47786V13.1532H4.89887V12.1532ZM5.74553 12.9998C5.74553 12.5319 5.3663 12.1532 4.89887 12.1532V13.1532C4.81433 13.1532 4.74553 13.0845 4.74553 12.9998H5.74553ZM4.89887 13.8465C5.3663 13.8465 5.74553 13.4677 5.74553 12.9998H4.74553C4.74553 12.9151 4.81433 12.8465 4.89887 12.8465V13.8465ZM18.5225 13.0061C18.5225 9.95703 16.0427 7.47722 12.9937 7.47722V8.47722C15.4904 8.47722 17.5225 10.5093 17.5225 13.0061H18.5225ZM12.9937 18.5244C16.0417 18.5244 18.5225 16.0503 18.5225 13.0061H17.5225C17.5225 15.4961 15.4914 17.5244 12.9937 17.5244V18.5244ZM7.47533 13.0061C7.47533 16.0493 9.9504 18.5244 12.9937 18.5244V17.5244C10.5027 17.5244 8.47533 15.4971 8.47533 13.0061H7.47533ZM12.9937 7.47722C9.94941 7.47722 7.47533 9.95802 7.47533 13.0061H8.47533C8.47533 10.5083 10.5037 8.47722 12.9937 8.47722V7.47722ZM9.16863 13.0061C9.16863 10.8904 10.8862 9.17053 12.9937 9.17053V8.17053C10.3316 8.17053 8.16863 10.3404 8.16863 13.0061H9.16863ZM12.9937 16.8311C10.885 16.8311 9.16863 15.1148 9.16863 13.0061H8.16863C8.16863 15.6672 10.3328 17.8311 12.9937 17.8311V16.8311ZM16.8292 13.0061C16.8292 15.1137 15.1094 16.8311 12.9937 16.8311V17.8311C15.6594 17.8311 17.8292 15.6683 17.8292 13.0061H16.8292ZM12.9937 9.17053C15.1082 9.17053 16.8292 10.8915 16.8292 13.0061H17.8292C17.8292 10.3392 15.6605 8.17053 12.9937 8.17053V9.17053Z" fill="#DA202A"/>
</svg>
