<svg xmlns="http://www.w3.org/2000/svg" xmlns:xlink="http://www.w3.org/1999/xlink" width="40" height="40" viewBox="0 0 40 40"><defs><path id="vvd0b" d="M266.676 588.959v16.502c0 9.448-7.441 17.126-16.673 17.126-9.256 0-16.673-7.706-16.673-17.126V588.96a1.19 1.19 0 0 1 1.024-1.179c.1-.014 9.842-1.41 13.925-3.926l1.1-.677a1.186 1.186 0 0 1 1.249 0l1.098.677c4.088 2.518 13.827 3.912 13.925 3.926a1.19 1.19 0 0 1 1.025 1.179"/><path id="vvd0c" d="M266.673 588.959v16.502c0 9.448-7.441 17.126-16.673 17.126V583c.217 0 .433.059.625.177l1.098.677c4.088 2.518 13.827 3.912 13.926 3.926a1.19 1.19 0 0 1 1.024 1.179"/><path id="vvd0d" d="M261.913 591.53c-.074-.01-7.41-1.063-10.456-2.939l-.834-.514a1.194 1.194 0 0 0-1.25 0l-.834.514c-3.046 1.876-10.381 2.929-10.455 2.94a1.19 1.19 0 0 0-1.024 1.178v11.704c0 5.245 2.98 9.893 7.476 12.043a12.677 12.677 0 0 0 7.923.998c2.544-.502 4.86-1.768 6.7-3.661a13.465 13.465 0 0 0 3.777-9.38v-11.704a1.19 1.19 0 0 0-1.023-1.179zm-1.348 12.877a11.05 11.05 0 0 1-3.106 7.718 10.393 10.393 0 0 1-5.457 2.984 10.288 10.288 0 0 1-6.435-.81c-3.722-1.78-6.126-5.662-6.126-9.892v-10.681c8.159-1.369 10.44-3.195 10.562-3.237.106.036 2.42 1.871 10.562 3.237z"/><path id="vvd0e" d="M262.938 592.709v11.704a13.465 13.465 0 0 1-3.778 9.38c-1.839 1.893-4.155 3.16-6.699 3.661a12.59 12.59 0 0 1-2.461.24v-2.38c.68.001 1.35-.066 1.998-.195a10.386 10.386 0 0 0 5.454-2.986 11.058 11.058 0 0 0 3.105-7.72v-10.686c-8.138-1.366-10.451-3.202-10.557-3.238V587.9c.217 0 .433.06.625.177l.834.514c3.047 1.876 10.381 2.929 10.455 2.94a1.19 1.19 0 0 1 1.024 1.178"/><path id="vvd0a" d="M230 595.47h40v15.088h-40z"/><path id="vvd0g" d="M268.81 595.47h-37.62a1.19 1.19 0 0 0-1.19 1.19v12.707c0 .657.533 1.19 1.19 1.19h37.62a1.19 1.19 0 0 0 1.19-1.19V596.66a1.19 1.19 0 0 0-1.19-1.19"/><path id="vvd0h" d="M270 596.66v12.707a1.19 1.19 0 0 1-1.19 1.19H250V595.47h18.81c.657 0 1.19.532 1.19 1.19"/><path id="vvd0i" d="M267.618 598.247v9.532c0 .219-.178.396-.397.396h-34.444a.397.397 0 0 1-.397-.396v-9.532c0-.22.178-.397.397-.397h34.444c.22 0 .397.178.397.397"/><path id="vvd0j" d="M267.619 598.247v9.532c0 .219-.178.396-.397.396H250V597.85h17.222c.22 0 .397.178.397.397"/><path id="vvd0k" d="M240.601 601.151h3.416a1.19 1.19 0 1 0 0-2.381h-3.416c-1.5 0-2.721 1.22-2.721 2.721 0 1.5 1.22 2.722 2.721 2.722h1.885a.34.34 0 0 1 0 .68h-3.416a1.19 1.19 0 0 0 0 2.381h3.416c1.5 0 2.722-1.22 2.722-2.721 0-1.5-1.221-2.721-2.722-2.721h-1.885a.34.34 0 0 1 0-.681"/><path id="vvd0l" d="M248.631 601.151h3.416a1.19 1.19 0 1 0 0-2.381h-3.416c-1.5 0-2.721 1.22-2.721 2.721 0 1.5 1.22 2.722 2.721 2.722h1.885a.34.34 0 0 1 0 .68H247.1a1.19 1.19 0 0 0 0 2.381h3.416c1.5 0 2.722-1.22 2.722-2.721 0-1.5-1.221-2.721-2.722-2.721h-1.885a.34.34 0 0 1 0-.681"/><path id="vvd0m" d="M260.927 604.893h-3.756v-4.933a1.19 1.19 0 0 0-2.381 0v6.124c0 .657.533 1.19 1.19 1.19h4.947a1.19 1.19 0 1 0 0-2.38"/><path id="vvd0n" d="M253.24 604.552c0 1.5-1.22 2.72-2.72 2.72H250v-2.38h.52a.34.34 0 0 0 0-.681H250v-2.381h.52c1.5 0 2.72 1.22 2.72 2.722"/><path id="vvd0o" d="M252.05 601.151H250v-2.381h2.05a1.19 1.19 0 0 1 0 2.381"/><clipPath id="vvd0f"><use xlink:href="#vvd0a"/></clipPath></defs><g><g transform="translate(-230 -583)"><g><use fill="#00b0fb" xlink:href="#vvd0b"/></g><g><use fill="#4858b7" xlink:href="#vvd0c"/></g><g><use fill="#fff" xlink:href="#vvd0d"/></g><g><use fill="#ebebeb" xlink:href="#vvd0e"/></g><g><g/><g clip-path="url(#vvd0f)"><use fill="#ccd1d9" xlink:href="#vvd0g"/></g></g><g><use fill="#aab2bc" xlink:href="#vvd0h"/></g><g><use fill="#fff" xlink:href="#vvd0i"/></g><g><use fill="#ececec" xlink:href="#vvd0j"/></g><g><use fill="#ed5565" xlink:href="#vvd0k"/></g><g><use fill="#ed5565" xlink:href="#vvd0l"/></g><g><use fill="#da4453" xlink:href="#vvd0m"/></g><g><use fill="#da4453" xlink:href="#vvd0n"/></g><g><use fill="#da4453" xlink:href="#vvd0o"/></g></g></g></svg>