<svg version="1.1" id="Layer_1" xmlns="http://www.w3.org/2000/svg" x="0" y="0" viewBox="0 0 60 59" xml:space="preserve"><style>.st0{fill:#fff}</style><path id="gklob" class="st0" d="M0 52.1c0-.2.1-.3.1-.4.6-2.6 3.8-3.7 5.9-2.1l.3.3-.7.7c-.6-.6-1.4-.8-2.2-.7-.5.1-1 .3-1.4.7-.9.8-1.1 2.1-.6 3.2.5 1.1 1.7 1.6 2.9 1.4 1-.2 1.7-.9 1.8-1.9H3.8v-1h3.1c.2 0 .3 0 .3.2.2 1.9-.8 3.3-2.4 3.7-2.1.5-4.2-.8-4.7-2.9 0-.2-.1-.3-.1-.4v-.8z"/><path id="gklod" class="st0" d="M19.8 58.4l-.4-.1c-.6-.2-1.1-.7-1.4-1.3l.9-.4c.6.8 1.1 1 1.8.7.5-.2.8-.8.7-1.5-1.3.7-2.3.5-3-.5-.7-.9-.6-2.3.2-3.1.8-.9 1.8-1 2.8-.2l.1-.3h1V56c0 1.2-.6 2.3-1.9 2.4h-.8zm-.9-4.6c0 .8.6 1.4 1.3 1.4.7 0 1.3-.6 1.3-1.4 0-.8-.6-1.4-1.3-1.4-.7 0-1.3.7-1.3 1.4z"/><path id="gkloe" class="st0" d="M25.9 54.5c.4.9 1.4.9 2.3.1.1.1.3.2.4.2.1.1.2.2.4.3-.3.5-.9.9-1.5 1-1.2.3-2.4-.5-2.7-1.6-.4-1.2.2-2.5 1.3-2.9 1.3-.5 2.6.2 2.9 1.6l-3.1 1.3m1.9-1.6c-.2-.4-.7-.6-1.1-.4-.5.2-.9.7-.9 1.3l2-.9"/><path id="gklof" class="st0" d="M9.9 56.2c-1.4 0-2.4-1-2.4-2.4 0-1.3 1-2.3 2.3-2.4h.1c1.4 0 2.4 1 2.4 2.4s-1.1 2.4-2.4 2.4m0-3.8c-.7 0-1.3.6-1.3 1.4 0 .8.6 1.4 1.3 1.4.7 0 1.3-.6 1.3-1.4 0-.7-.5-1.4-1.3-1.4"/><path id="gklog" class="st0" d="M15.1 56.2c-1.3 0-2.4-1-2.4-2.3 0-1.4 1-2.4 2.4-2.4 1.3 0 2.4 1 2.4 2.4 0 1.3-1.1 2.3-2.4 2.3m1.3-2.4c0-.8-.6-1.4-1.3-1.4-.7 0-1.3.6-1.3 1.4 0 .8.6 1.4 1.3 1.4.7.1 1.3-.6 1.3-1.4"/><path id="gkloh" class="st0" d="M23.1 56h1v-6.9h-1V56z"/><path id="gkloi" class="st0" d="M45 51.7h.8v.6c.5-.6 1.1-.9 1.9-.6-.1.1-.1.2-.1.3-.1.3-.2.4-.6.4-.7-.1-1.2.5-1.2 1.2V56H45v-4.3zm-5.5 0c-.5.7-.9 1.3-1.3 1.9-.2.2-.2.3 0 .6.5.6.9 1.3 1.4 1.9h-.9c-.1 0-.2-.1-.3-.2-.3-.4-.6-.9-.9-1.4-.3.4-.6.8-.8 1.2-.2.3-.3.4-.6.3h-.6c.4-.6.8-1.1 1.2-1.7.4-.6.4-.6 0-1.1l-1.1-1.6h.8c.1 0 .2.1.3.2.3.4.6.9.9 1.3.3-.4.5-.8.8-1.2.2-.3.4-.4.7-.4 0 .2.2.2.4.2m15.7 1.2c-.4-.5-.9-.7-1.5-.5-.2.1-.4.3-.4.5-.1.2.2.4.4.5.4.1.9.2 1.3.3.7.2 1 .7.9 1.4 0 .5-.5 1-1.1 1.2-1.1.3-2.1-.1-2.6-1.2l.7-.3c.1.1.2.2.2.3.3.4.9.6 1.4.4.2-.1.4-.3.4-.5s-.2-.4-.4-.5c-.3-.1-.7-.2-1-.3-.3-.1-.7-.3-1-.5-.4-.3-.4-1-.1-1.4.7-1 2.8-.9 3.2.4l-.4.2m-6.6.4H51c-.1-.6-.5-1-1.1-1-.6-.1-1.1.3-1.3 1m3.3.7h-3.4c0 .6.3 1.1.9 1.3.6.2 1.1 0 1.7-.7l.7.3c-.3.6-.7 1-1.4 1.2-1.3.3-2.5-.4-2.7-1.7-.3-1.4.4-2.7 1.7-2.9 1.5-.2 2.8 1 2.5 2.5m-20.6-4.3H35v.8h-2.9v2h2.6v.8h-2.6v2H35v.7h-3.7v-6.3zm12.2 4.2c0-1-.8-1.8-1.7-1.5-.6.2-1 .7-1.1 1.4 0 .8.3 1.4.9 1.6 1 .3 1.9-.4 1.9-1.5m-2.8 1.6V58h-.8v-6.3h.8v.5c.2-.1.3-.3.4-.4.7-.5 1.6-.4 2.3.1.8.6 1 1.5.8 2.4-.2.9-.7 1.5-1.6 1.7-.6.3-1.3.1-1.9-.5M60 55c-.7 1.2-2 1.6-3 .8-.3-.2-.5-.5-.8-.8l.8-.3c.3.6.7.9 1.4.8.4 0 .7-.3.7-.5 0-.4-.3-.5-.6-.6-.3-.1-.5-.1-.8-.2-.2-.1-.5-.2-.7-.3-.7-.4-.8-1.3-.1-1.8.9-.7 2.6-.5 3 .6l-.7.3c-.5-.5-.9-.7-1.5-.5-.2.1-.4.3-.4.5s.2.4.4.4c.2.1.5.2.7.2.7.1 1.3.4 1.5 1.2l.1.2z"/><path id="gkloj" d="M19.4 1.4c.6-.2 1.3-.5 1.9-.7 1.5-.2 2.9.1 4.2.7 2.7 1.2 4.9 3.2 6.7 5.5 2.2 2.7 3.7 5.7 4.9 9l-.1.1-2 .7c-.1 0-.2 0-.2.1-3.3 1.2-6.5 2.4-9.8 3.6-2 .8-4 1.5-6.1 2.3l-2.1.7c-1.3-3.7-2-7.5-1.9-11.4.1-1.9.3-3.7.9-5.5.6-1.9 1.5-3.6 3.1-4.8 0 0 0-.1.1-.2l.2-.1h.2" fill="#00b0fb"/><path id="gklok" d="M37.5 16.2c-1.2-3.3-2.8-6.3-4.9-9.1-1.9-2.3-4-4.3-6.7-5.6-1.4-.6-2.8-.9-4.2-.7C29-1.2 35.4.5 41 5.9c2 1.9 3.4 4.2 4.5 6.8.1.2.1.3.1.5l-.1.1c-.9.3-1.8.7-2.8 1l-.1.1c-.1 0-.3.1-.4.1-1.6.5-3.1 1.1-4.7 1.7" fill="#fecb01"/><path id="gklol" d="M19.2 1.8c0 .1 0 .1-.1.2-1.6 1.2-2.5 2.9-3.1 4.7-.6 1.8-.8 3.6-.9 5.4-.1 3.9.6 7.6 1.9 11.3v.1l-5.1 1.9-2.7 1c-.3.1-.3-.1-.3-.3-.7-2.3-1-4.6-.9-6.9.2-5.5 2.3-10.2 6.3-14.1 1.4-1.3 3-2.4 4.7-3.2-.1 0 .1-.1.2-.1" fill="#4858b7"/><path id="gklom" d="M17 23.5l2.2-.8.1.1c2.2 1.2 4.3 2.3 6.5 3.5l4.5 2.4c.5.3.5.3.8-.3 1.3-3.2 2.5-6.4 3.8-9.6.3-.7.5-1.4.8-2.1l2-.7v.2c-.9 2.3-1.9 4.7-2.8 7-.3.8-.6 1.6-.9 2.3.4-.5.9-1 1.3-1.6 1.4-1.8 2.8-3.6 4.3-5.4.9-1.2 1.9-2.3 2.8-3.5.2-.3.4-.6.6-1l.1-.1 2.8-1c0 .1-.1.3-.1.4-1.5 1.9-3 3.7-4.4 5.6-1.5 1.9-3 3.8-4.5 5.6-1.2 1.6-2.5 3.1-3.7 4.7-.3.4-.6.7-.9 1.1-.1.2-.2.4-.3.5l-.3.1-3.9-.9c-1.4-.3-2.7-.6-4.1-.8-2.5-.5-5-1-7.5-1.6-1.5-.3-2.9-.6-4.4-.9-.7-.1-1.3-.3-2-.4-.2 0-.3-.1-.5-.2l2.8-1c.1 0 .1.1.1.1 2 .4 4.1.8 6.1 1.3 2.4.5 4.9 1 7.3 1.5.3.1.5.1.8.1-1.1-.7-2.2-1.3-3.2-1.8-1.4-.7-2.7-1.5-4.1-2.2-1 0-1.5-.3-2.1-.6" fill="#ccd1d9"/><path id="gklon" d="M30.8 31.5l.3-.1 3.7-1.3 2.9 7.9-7.9 2.9-2.8-8 3.8-1.4" fill="#ed5565"/></svg>