<svg xmlns="http://www.w3.org/2000/svg" width="60" height="60"><g fill="none"><path fill="#A98258" d="M49.655 0h-39.31L0 16.552V60h60V16.552z"/><path fill="#DAAE86" d="M10.345 0L0 16.552h60L49.655 0z"/><path fill="#D8B18B" d="M34.138 55.862L30 51.724l-4.138 4.138-2.069-2.069V60h12.414v-6.207z"/><path fill="#E8D5B2" d="M20.69 31.034h18.621v16.552H20.69z"/><path fill="#D4C3A5" d="M31.034 42.414h-6.207a1.034 1.034 0 1 0 0 2.069h6.207a1.034 1.034 0 1 0 0-2.07zm4.138 0h-1.034a1.034 1.034 0 1 0 0 2.069h1.034a1.034 1.034 0 1 0 0-2.07zm-6.207-6.207h6.207a1.034 1.034 0 1 0 0-2.069h-6.207a1.034 1.034 0 1 0 0 2.069zm6.207 2.069h-2.069a1.034 1.034 0 1 0 0 2.069h2.07a1.034 1.034 0 1 0 0-2.07zm-10.345 2.069h2.07a1.034 1.034 0 1 0 0-2.07h-2.07a1.034 1.034 0 1 0 0 2.07zm0-4.138h1.035a1.034 1.034 0 1 0 0-2.069h-1.035a1.034 1.034 0 1 0 0 2.069zm4.438 2.369c-.186.195-.3.454-.3.734 0 .28.114.538.3.735.197.186.466.3.735.3.269 0 .538-.114.734-.3.187-.197.3-.466.3-.735a1.08 1.08 0 0 0-.3-.734c-.393-.383-1.086-.383-1.469 0z"/><path fill="#F4D5BD" d="M23.793 0h12.414v16.552H23.793z"/><path fill="#D8B18B" d="M25.862 21.724L30 25.862l4.138-4.138 2.069 2.069v-7.241H23.793v7.241z"/></g></svg>