<svg xmlns="http://www.w3.org/2000/svg" xmlns:xlink="http://www.w3.org/1999/xlink" width="60" height="43"><defs><path id="d" d="M98.594 597h-3.77l-.764 8.771h4.534c2.687 0 3.9 1.393 5.182 2.867 1.217 1.398 2.595 2.982 5.204 2.982h.801l.072-.796c.088-1.027.144-1.891.144-2.42 0-6.288-5.115-11.404-11.403-11.404"/><path id="e" d="M98.6 597h-3.51c6.288 0 11.404 5.116 11.404 11.403 0 .53-.057 1.394-.145 2.421l-.012.127c.727.406 1.585.669 2.648.669h.801l.072-.796c.088-1.027.145-1.891.145-2.42 0-6.288-5.116-11.404-11.404-11.404"/><path id="f" d="M95.969 583.868l-.002-.035a.717.717 0 0 0-.003-.053l-.006-.037-.008-.049-.01-.036c-.004-.016-.007-.032-.012-.047l-.014-.038-.016-.041-.02-.042c-.006-.011-.01-.023-.017-.034-.009-.017-.02-.033-.03-.049l-.013-.022a.851.851 0 0 0-.043-.057l-.007-.01a.877.877 0 0 0-.255-.21l-.004-.002a.83.83 0 0 0-.062-.03l-.016-.008-.053-.019-.03-.01c-.014-.005-.03-.008-.044-.012l-.042-.01c-.013-.003-.026-.004-.04-.006l-.047-.007h-.007c-.015-.002-.03-.002-.044-.002l-.032-.002H63.103c-.412 0-.77.29-.856.692l-.002.009a.501.501 0 0 0-.01.066l-.004.021v.005l-2.602 26.854v.002l-.009.089.004.002a.877.877 0 0 0 .877.875h32.253a.846.846 0 0 0 .087-.005l.016-.002a.783.783 0 0 0 .068-.01l.029-.008a.85.85 0 0 0 .052-.013l.034-.012.044-.016a.762.762 0 0 0 .074-.034l.036-.02a1.07 1.07 0 0 0 .102-.07l.03-.025a.876.876 0 0 0 .09-.09l.023-.028a.983.983 0 0 0 .073-.107l.017-.03.02-.043.016-.034.015-.042c.005-.013.01-.025.013-.038l.01-.041c.004-.014.008-.028.01-.042l.007-.042.006-.043v-.007l2.339-26.844v-.007l.001-.009v-.022l.003-.054v-.009"/><path id="g" d="M95.964 583.868l-.002-.035-.004-.053-.005-.037-.008-.049-.01-.036-.012-.047-.014-.038-.016-.041-.02-.042-.017-.034-.03-.049-.014-.022a.855.855 0 0 0-.043-.057l-.007-.01a.877.877 0 0 0-.255-.21l-.003-.002a.831.831 0 0 0-.063-.03l-.015-.008-.053-.019-.03-.01c-.014-.005-.03-.008-.044-.012l-.042-.01c-.013-.003-.027-.004-.04-.006l-.048-.007h-.007c-.014-.002-.029-.002-.043-.002l-.032-.002h-3.51l.033.002.043.001.007.001.047.007c.014.002.028.003.041.006l.042.01c.014.004.03.007.044.012l.03.01c.017.006.035.012.052.02l.016.007.063.03.003.002a.876.876 0 0 1 .255.21l.007.01c.015.019.03.038.043.057l.014.022.03.05c.006.01.01.022.016.033.007.014.015.028.02.042l.016.041.014.038.013.047.01.036.007.05.006.036a.47.47 0 0 1 .003.053l.002.035v.01c0 .017 0 .035-.002.053v.022l-.002.01v.006l-2.338 26.844-.001.007-.006.043-.006.042-.01.042-.01.041a.343.343 0 0 0-.013.038l-.016.042-.015.034-.02.042-.018.031a.914.914 0 0 1-.126.169.8.8 0 0 1-.156.129 1.832 1.832 0 0 1-.036.022l-.035.02-.039.018a.773.773 0 0 1-.036.016l-.044.016-.034.012-.052.014c-.01.002-.019.005-.029.006a.826.826 0 0 1-.068.01.874.874 0 0 1-.102.007h3.508c.03 0 .059 0 .087-.004l.016-.002a.782.782 0 0 0 .069-.01l.028-.007.052-.014c.012-.003.023-.008.035-.012.014-.005.03-.01.043-.016a.773.773 0 0 0 .036-.016l.039-.019.035-.02.036-.021a.837.837 0 0 0 .156-.129.87.87 0 0 0 .126-.169l.018-.03.02-.043.015-.034.016-.042.013-.038.01-.041.01-.042.006-.042.006-.043.001-.007 2.338-26.844v-.007l.001-.009.001-.022.003-.054v-.009"/><path id="h" d="M98.595 605.772c.287 0 .557.016.812.046l.759-8.71a11.458 11.458 0 0 0-1.57-.108h-.182l-.764 8.771h.945z"/><path id="i" d="M67.773 604.594H57.247a.877.877 0 1 1 0-1.754h10.526a.877.877 0 1 1 0 1.754"/><path id="j" d="M58.426 598.754h-4.289a.877.877 0 1 1 0-1.754h4.289a.877.877 0 1 1 0 1.754"/><path id="a" d="M50.12 589.98h23.218v1.754H50.12z"/><path id="l" d="M72.46 591.734H50.997a.877.877 0 1 1 0-1.754H72.46a.877.877 0 1 1 0 1.754"/><path id="m" d="M109.853 610.83l-.069.765c.025-.262.048-.518.069-.764v-.001"/><path id="n" d="M108.978 611.618c-2.608 0-3.987-1.584-5.203-2.981-1.283-1.474-2.495-2.867-5.183-2.867H94.06l-.44 5.047v.006l-.007.043-.006.042-.01.042-.01.041-.013.038-.016.042c-.004.012-.01.023-.015.034a.41.41 0 0 1-.02.042l-.018.032a.909.909 0 0 1-.072.107l-.023.027a.944.944 0 0 1-.031.034l-.026.027-.033.03-.03.024a1.015 1.015 0 0 1-.103.07l-.035.02-.039.018a.72.72 0 0 1-.036.016l-.043.017-.034.011c-.017.006-.035.01-.053.014l-.028.007a.88.88 0 0 1-.069.01l-.016.003a.937.937 0 0 1-.087.004H60.494a.877.877 0 0 1-.877-.875l-.004-.002-.898 9.266v.006c-.002.012-.002.024-.003.037l-.002.048v.002c0 .023.002.045.003.067.001.007 0 .014.002.021a.848.848 0 0 0 .01.068l.003.02c.003.016.008.032.013.049l.009.035.003.01a.88.88 0 0 0 .209.343l.004.005.03.027a.89.89 0 0 0 .203.139c.016.008.031.016.047.022l.015.006a.934.934 0 0 0 .067.024l.006.002a.856.856 0 0 0 .079.02l.01.001a.934.934 0 0 0 .078.012h.001a.88.88 0 0 0 .086.004h48.362c.03 0 .058-.001.087-.004l.015-.002a.915.915 0 0 0 .068-.01l.028-.007a.772.772 0 0 0 .051-.014l.034-.01a.821.821 0 0 0 .043-.017l.036-.015.038-.019a.636.636 0 0 0 .07-.04.27.27 0 0 0 .033-.022l.035-.026.029-.023.035-.032.023-.023c.013-.012.024-.025.036-.038l.018-.022a.776.776 0 0 0 .036-.048l.013-.017a.877.877 0 0 0 .04-.066l.002-.004a.805.805 0 0 0 .037-.075l.008-.023a.848.848 0 0 0 .02-.055l.01-.037.011-.044.007-.04.007-.035c.034-.277.63-5.055.96-8.59z"/><path id="o" d="M108.985 611.615c-1.06 0-1.917-.26-2.642-.665-.33 3.534-.991 8.977-1.026 9.254-.001.012-.004.024-.006.035l-.007.04-.011.045-.01.037a.854.854 0 0 1-.02.055l-.009.022a.839.839 0 0 1-.036.075c0 .002-.002.003-.003.004a.819.819 0 0 1-.04.066c-.003.006-.008.011-.012.017a.782.782 0 0 1-.036.049l-.019.021-.035.039-.024.023-.035.031-.029.023a1.075 1.075 0 0 1-.034.026l-.033.022a.852.852 0 0 1-.07.04c-.013.008-.026.013-.039.02a.736.736 0 0 1-.078.03l-.034.012a.718.718 0 0 1-.051.013l-.029.007a.915.915 0 0 1-.067.01l-.016.002a.914.914 0 0 1-.084.005h3.507c.03 0 .058-.002.086-.005l.016-.002a.915.915 0 0 0 .067-.01l.029-.007a.705.705 0 0 0 .051-.013l.034-.011a.822.822 0 0 0 .043-.016l.035-.016.039-.018a.706.706 0 0 0 .07-.04l.033-.023.035-.026a.215.215 0 0 0 .028-.023l.035-.031.024-.023.035-.039.02-.021a.779.779 0 0 0 .035-.049c.004-.006.009-.01.012-.017a.879.879 0 0 0 .04-.066l.003-.004a.805.805 0 0 0 .036-.075l.009-.022a.836.836 0 0 0 .02-.055l.01-.037.011-.044.007-.04.006-.036c.035-.277.63-5.054.96-8.589z"/><path id="b" d="M64.27 614.25h11.696v11.696H64.27z"/><path id="q" d="M70.118 625.946a5.854 5.854 0 0 1-5.848-5.848 5.855 5.855 0 0 1 5.848-5.848 5.855 5.855 0 0 1 5.848 5.848 5.855 5.855 0 0 1-5.848 5.848"/><path id="r" d="M70.12 622.438c-1.29 0-2.34-1.049-2.34-2.339s1.05-2.339 2.34-2.339a2.342 2.342 0 0 1 2.338 2.34 2.341 2.341 0 0 1-2.339 2.338"/><path id="c" d="M91.58 614.25h11.696v11.696H91.58z"/><path id="t" d="M97.428 625.946a5.854 5.854 0 0 1-5.848-5.848 5.855 5.855 0 0 1 5.848-5.848 5.855 5.855 0 0 1 5.848 5.848 5.855 5.855 0 0 1-5.848 5.848"/><path id="u" d="M97.43 622.438c-1.29 0-2.34-1.049-2.34-2.339s1.05-2.339 2.34-2.339a2.342 2.342 0 0 1 2.338 2.34 2.341 2.341 0 0 1-2.339 2.338"/><clipPath id="k"><use xlink:href="#a"/></clipPath><clipPath id="p"><use xlink:href="#b"/></clipPath><clipPath id="s"><use xlink:href="#c"/></clipPath></defs><use fill="#00b0fb" xlink:href="#d" transform="translate(-50 -583)"/><use fill="#4858b7" xlink:href="#e" transform="translate(-50 -583)"/><use fill="#ed5565" xlink:href="#f" transform="translate(-50 -583)"/><use fill="#da4453" xlink:href="#g" transform="translate(-50 -583)"/><use fill="#ccd1d9" xlink:href="#h" transform="translate(-50 -583)"/><use fill="#e6e9ed" xlink:href="#i" transform="translate(-50 -583)"/><use fill="#e6e9ed" xlink:href="#j" transform="translate(-50 -583)"/><g clip-path="url(#k)" transform="translate(-50 -583)"><use fill="#e6e9ed" xlink:href="#l"/></g><use fill="#ccd1d9" xlink:href="#m" transform="translate(-50 -583)"/><use fill="#ccd1d9" xlink:href="#n" transform="translate(-50 -583)"/><use fill="#aab2bc" xlink:href="#o" transform="translate(-50 -583)"/><g clip-path="url(#p)" transform="translate(-50 -583)"><use fill="#656d78" xlink:href="#q"/></g><use fill="#ccd1d9" xlink:href="#r" transform="translate(-50 -583)"/><g clip-path="url(#s)" transform="translate(-50 -583)"><use fill="#656d78" xlink:href="#t"/></g><use fill="#ccd1d9" xlink:href="#u" transform="translate(-50 -583)"/></svg>